<defs>
<font horiz-adv-x="435" ><font-face
    font-family="vollkorn-regular"
    units-per-em="1000"
    panose-1="2 0 5 3 7 0 0 2 0 3"
    ascent="952"
    descent="-441"
    alphabetic="0" />
<missing-glyph horiz-adv-x="454" d="M53 677H405V0H53V677ZM70 640H178V655H70V640ZM91 653H92Q95 653 95 647Q95 642 92 642H91V653ZM165 653H166Q169 653 169 647Q169 642 166 642H165V653ZM79 653H80Q83 653 83 649Q83 646 81 645L83 642H82L80 645V642H79V653ZM96
653H97Q100 653 100 649Q100 646 98 645L100 642H99L97 645V642H96V653ZM156 653H157L159 645V653H160V642H159L157 649V642H156V653ZM118 645H116V642H115L117 653H118L120 642H119L118 645ZM138 645H136V642H135L137 653H138L140 642H139L138 645ZM133 646H131V642H130V653H131V647H133V653H134V642H133V646ZM111
653H112V642H111V646H109V642H108V653H109V647H111V653ZM144 653H145V647Q145 642 143 642Q141 642 141 646V653H142V647Q142 643 143 643Q144 643 144 646V653ZM86 653H90V652H87V647H90V646H87V643H90V642H86V653ZM170 653H174V652H171V647H174V646H171V643H174V642H170V653ZM151
653H155V652H152V647H155V646H152V643H155V642H151V653ZM74 653H78V652H75V646H78V645H75V642H74V653ZM146 651Q146 654 150 653V652Q147 653 147 651Q147 648 148 648T150 644Q150 641 146 642V643Q149 641 149 644Q149 646 148 647T146 651ZM107 642Q103 641
103 648Q103 654 107 653V652Q104 653 104 648Q104 641 107 643V642ZM124 653H129V652H127V642H126V652H124V653ZM92 643Q94 643 94 647Q94 652 92 652V643ZM166 643Q168 643 168 647Q168 652 166 652V643ZM125 643V642H121V653H122V643H125ZM84 653H85V642H84V653ZM101
653H102V642H101V653ZM80 646Q82 646 82 649Q82 652 80 652V646ZM97 646Q99 646 99 649Q99 652 97 652V646ZM136 646H138L137 650L136 646ZM116 646H118L117 650L116 646ZM162 643H163V642H162V643Z" />
<glyph unicode=";" glyph-name=".null" horiz-adv-x="500" />
<glyph unicode="&#xd;" glyph-name="CR" horiz-adv-x="500" />
<glyph unicode=" " glyph-name="space" horiz-adv-x="200" />
<glyph unicode="!" glyph-name="exclam" horiz-adv-x="411" d="M246 714Q267 707 264 683Q259 636 254 580T245 464T236 343T230 225Q218 225 206 226T185 231Q181 301 177 361T168 475T158 579T145 681Q155 683 169 687T197 695T225 704T246 714ZM211 102Q237
102 251 85T266 50Q266 20 248 6T207 -8Q180 -8 165 7T150 45Q150 68 167 85T211 102Z" />
<glyph unicode="&quot;" glyph-name="quotedbl" horiz-adv-x="343" d="M116 714Q139 709 136 681Q135 678 135 675T134 667Q129 627 126 582T118 479Q108 479 96 481T79 488Q77 540 73 592T60 693Q74 695 90 700T116 714ZM263 714Q283 709 283 687V681Q278 638
274 590T265 478Q254 478 242 480T224 487Q222 539 218 591T206 693Q220 695 236 701T263 714Z" />
<glyph unicode="#" glyph-name="numbersign" horiz-adv-x="603" d="M473 443L435 263H544Q544 248 542 238T532 214H425L378 -8Q359 -5 351 0T334 14L376 214Q322 214 280 213H216L170 -8Q139 -4 127 18L168 213Q125 213 98 212H54Q54 237 66 263H179L217 442H188Q146
442 107 441Q107 452 109 465T119 492H227L275 714Q289 712 299 708T318 692L275 492H436L483 714Q513 708 526 694L483 492H586Q586 477 584 467T574 443H473ZM265 443L227 263H387L425 443H265Z" />
<glyph unicode="$" glyph-name="dollar" horiz-adv-x="546" d="M248 -8Q229 -7 212 -5Q186 -2 164 5T119 25T68 55Q74 93 75 131T77 197Q88 200 103 201T131 203Q133 165 141 135T165 84T209 50Q226 43 248 40V297Q242 300 236 302Q196 321 162 346T104 410T81
509Q81 548 94 580T132 636T189 672Q216 682 248 684V744Q263 744 273 742T294 733Q294 713 293 684Q331 681 360 671Q400 658 421 641Q421 612 422 574T427 509Q416 504 401 502T371 500Q363 543 353 570T330 613T299 635Q296 636 292 637V392L322 377Q362 358
396 333T454 271T477 180Q477 142 462 108T419 47T355 6Q326 -5 293 -8Q294 -55 294 -91Q283 -91 269 -88T248 -80V-8ZM292 274V39Q312 41 328 47Q349 56 363 70T384 102T392 142Q392 187 369 215T311 263Q302 269 292 274ZM190 469Q213 441 247 419L248 418V640Q214
636 193 615Q167 589 167 541Q167 497 190 469Z" />
<glyph unicode="%" glyph-name="percent" horiz-adv-x="834" d="M174 -7Q160 1 151 10T138 30L691 686Q705 683 714 676T733 657L174 -7ZM626 311Q663 311 690 298T736 263T764 214T774 159Q774 125 764 95T733 41T683 5T615 -9Q576 -9 547 4T498 39T468 88T458
145Q458 178 468 208T500 261T552 297T626 311ZM612 269Q597 269 584 261T561 237T546 202T540 158Q540 104 562 69T624 33Q636 33 648 40T670 61T686 96T693 145Q693 199 671 234T612 269ZM256 677Q292 677 319 664T365 629T393 580T403 526Q403 492 393 462T362
409T313 373T246 359Q207 359 178 372T129 407T100 456T90 512Q90 544 100 574T132 627T184 663T256 677ZM243 635Q211 635 189 604T167 525Q167 471 190 436T254 401Q266 401 279 408T302 429T320 463T327 512Q327 566 304 600T243 635Z" />
<glyph unicode="&amp;" glyph-name="ampersand" horiz-adv-x="742" d="M572 102Q584 89 595 81T619 67T648 59T687 55Q687 45 686 33T681 10Q667 10 647 9T606 5T566 -1T535 -9Q502 35 468 75Q462 81 456 88Q416 39 374 16Q327 -10 268 -10Q208 -10 167 9T101
60T65 131T54 208Q54 246 65 279T96 340T143 391Q162 407 182 421L174 435Q159 467 151 499T142 568Q142 596 153 623T185 671T236 704T306 717Q349 717 379 709T442 682Q438 656 437 626T437 565Q425 560 411 559T384 557Q380 621 361 647T300 673Q265 673 243
651T221 587Q221 565 225 545T239 503T268 454T315 391Q331 371 351 347T400 290T471 210Q478 203 484 196Q509 235 523 266Q539 301 547 334Q557 373 541 390T472 419Q469 429 467 440T465 461Q486 459 514 459T567 458Q592 458 621 458T667 461Q667 452 666 441T663
420Q632 409 618 391T594 338Q581 293 561 249Q544 211 516 161Q542 134 572 102ZM281 67Q326 67 362 83Q392 97 423 126Q412 140 400 153Q367 192 333 229T265 307Q236 341 213 372L201 388Q178 363 160 332Q138 293 138 237Q138 195 149 164T180 111T226 78T281
67Z" />
<glyph unicode="&apos;" glyph-name="quotesingle" horiz-adv-x="198" d="M117 714Q136 711 138 690V681Q132 637 129 590T120 477Q109 477 97 479T80 487Q78 540 73 591T60 693Q74 695 90 701T117 714Z" />
<glyph unicode="(" glyph-name="parenleft" horiz-adv-x="291" d="M215 741Q228 743 235 740T250 729Q215 676 190 622T150 508T127 382T120 240Q120 162 128 95T152 -34T194 -153T256 -266Q249 -271 239 -272T220 -271Q132 -154 84 -30T35 240Q35 305 45 365T77
486T133 609T215 741Z" />
<glyph unicode=")" glyph-name="parenright" horiz-adv-x="291" d="M76 741Q124 672 158 610T214 487T246 366T256 240Q256 94 208 -30T71 -271Q63 -273 53 -272T35 -266Q71 -210 96 -153T138 -35T163 94T171 240Q171 316 164 382T142 507T101 621T41 729Q48 735
56 738T76 741Z" />
<glyph unicode="*" glyph-name="asterisk" horiz-adv-x="443" d="M284 664Q271 635 258 600T233 529Q269 535 302 542T373 561Q379 548 381 529T381 494Q349 496 311 497T236 500Q253 467 270 439T309 377Q297 366 283 359T248 350Q241 380 231 416T209 487Q183
461 162 436T116 381Q103 388 90 401T71 431Q97 447 128 468T190 511Q158 527 127 539T60 566Q63 580 71 597T93 624Q116 604 146 581T205 536Q210 572 212 605T217 677Q231 679 250 676T284 664Z" />
<glyph unicode="+" glyph-name="plus" horiz-adv-x="578" d="M262 139Q263 174 263 208V238H240Q208 238 175 238T108 237T46 236Q46 247 48 263T56 287H263V371Q263 397 263 426T262 495Q273 502 285 503T312 505V287H531Q531 272 530 260T521 237Q482 237 453
237T399 238H312V16Q305 11 289 9T261 6Q261 36 261 70T262 139Z" />
<glyph unicode="," glyph-name="comma" horiz-adv-x="259" d="M165 97Q199 84 199 25Q199 -5 191 -33T167 -89T133 -140T92 -185Q72 -185 60 -170Q91 -135 107 -102T124 -43Q124 1 77 7Q77 17 78 35T85 67Q108 72 128 79T165 97Z" />
<glyph unicode="-" glyph-name="hyphen" horiz-adv-x="419" d="M359 299Q359 283 356 266T346 234Q319 234 281 234T202 233T125 232T60 230Q60 247 64 266T76 299H359Z" />
<glyph unicode="." glyph-name="period" horiz-adv-x="236" d="M121 102Q147 102 161 85T176 50Q176 20 158 6T117 -8Q90 -8 75 7T60 45Q60 68 77 85T121 102Z" />
<glyph unicode="/" glyph-name="slash" horiz-adv-x="365" d="M76 -9Q62 -4 50 3T33 17L291 713Q302 710 314 703T334 687L76 -9Z" />
<glyph unicode="0" glyph-name="zero" horiz-adv-x="601" d="M275 455Q240 455 213 441T168 401T141 342T131 269Q131 232 144 193T184 122T246 69T330 48Q366 48 392 63T434 103T459 162T467 233Q467 267 455 306T418 378T357 433T275 455ZM304 506Q353 506 399
490T481 441T539 362T561 255Q561 195 540 146T484 63T402 10T304 -9Q252 -9 204 9T120 62T62 146T40 255Q40 315 63 362T123 441T208 489T304 506Z" />
<glyph unicode="1" glyph-name="one" horiz-adv-x="388" d="M239 127Q239 102 242 86T254 60T275 46T308 40Q311 29 312 19T313 -3Q298 -2 281 -1L248 0H194Q167 0 135 0T75 -3Q75 8 76 18T80 40Q118 42 133 59T149 127V373Q149 397 146 413T135 440T114 454T80
460Q75 480 75 503Q87 502 102 502T134 501T166 500H194Q226 500 257 500T313 503Q313 480 308 460Q268 458 254 440T239 373V127Z" />
<glyph unicode="2" glyph-name="two" horiz-adv-x="537" d="M278 506Q303 506 330 500T379 478T416 437T430 376Q430 353 425 334T406 296T372 254T320 204Q294 181 261 150Q233 123 198 90H344Q365 90 378 91T398 99T409 118T414 151Q443 151 461 144Q461 106
463 78T472 21Q467 12 460 5T440 -2Q392 -1 344 -1T243 0H202Q180 0 157 0T113 -1T78 -2Q70 7 68 16T65 39Q108 79 151 118T236 194Q264 219 282 240T312 280T328 320T333 363Q333 381 327 396T308 424T281 443T247 450Q205 450 183 422T151 321Q138 321 123 322T97
328Q98 341 99 358T100 392T99 427T95 458Q114 471 132 480T173 495T220 503T278 506Z" />
<glyph unicode="3" glyph-name="three" horiz-adv-x="513" d="M263 500Q325 500 362 500T426 502Q434 495 436 485T438 462Q405 422 362 368T268 248Q305 250 340 238T402 201T446 138T463 50Q463 6 445 -34T392 -104T308 -153T196 -171Q146 -171 109 -158T50
-126Q50 -118 53 -110T64 -93Q77 -102 108 -111T191 -121Q220 -121 250 -111T305 -82T346 -33T362 36Q362 94 326 133T217 172Q198 172 185 165Q177 173 172 183T167 200Q227 276 267 329T334 420H212Q190 420 176 418T151 408T133 387T118 350Q107 350 96 353T77
363Q85 400 86 433T88 502Q113 501 156 501T263 500Z" />
<glyph unicode="4" glyph-name="four" horiz-adv-x="597" d="M431 0V-152Q422 -152 408 -154T382 -160T359 -166T348 -171Q337 -160 337 -138V0H330Q253 0 190 -2T63 -6Q57 0 51 10T45 32Q59 50 78 75T119 131T165 196T214 266Q238 300 262 334T308 400T351 459T386
506Q398 506 410 504T431 496V79H518Q538 79 547 70Q540 56 535 35T529 0H431ZM337 79V357L152 79H337Z" />
<glyph unicode="5" glyph-name="five" horiz-adv-x="481" d="M134 502Q160 501 182 501T225 500H307Q336 500 347 514T359 548Q368 551 380 552T404 553Q400 526 399 495T398 428Q393 420 383 415T353 410H308Q280 410 251 410T196 409T160 407L136 306Q200 292
252 273T342 226T400 159T421 67Q421 9 398 -35T338 -110T259 -155T175 -171Q137 -171 107 -162T60 -139Q60 -122 73 -106Q86 -111 113 -116T171 -121Q201 -121 228 -110T276 -78T309 -27T321 40Q321 83 300 115T245 169T170 205T90 222Q82 227 78 236T73 253L134
502Z" />
<glyph unicode="6" glyph-name="six" horiz-adv-x="501" d="M414 607Q343 592 289 567T199 500T144 395Q137 371 132 342Q149 353 164 362Q184 374 202 381T237 391T274 395Q360 395 410 348T461 212Q461 162 444 122T398 52T331 7T250 -9Q142 -9 89 54T35 240Q35
352 70 427T160 548T280 614T404 638Q409 632 411 626T414 607ZM179 328Q157 322 128 303Q126 275 126 244Q126 183 140 143T174 80T218 47T259 37Q289 37 310 50T345 83T365 127T372 175Q372 223 358 254T323 303T276 329T229 336Q204 336 179 328Z" />
<glyph unicode="7" glyph-name="seven" horiz-adv-x="485" d="M303 500Q332 500 357 500T400 501T430 502Q435 499 439 493T445 480Q407 414 368 346T288 198Q264 151 249 111T224 34T211 -41T207 -121Q187 -134 168 -148T136 -176Q127 -174 122 -169T117 -158Q117
-126 125 -82T147 10Q154 35 171 75T214 166T273 279T347 409H188Q167 409 152 407T125 398T106 377T91 340Q81 340 70 343T50 352Q59 390 63 425T67 502Q106 500 145 500H303Z" />
<glyph unicode="8" glyph-name="eight" horiz-adv-x="508" d="M138 299Q161 317 190 335Q137 371 108 404Q74 442 74 492Q74 520 85 546T117 592T171 624T246 637Q331 637 379 604T428 504Q428 473 417 450T387 408T346 374Q329 364 313 355Q329 344 344 333Q379
307 403 280T440 223T453 156Q453 118 438 88T395 36T331 3T249 -9Q205 -9 170 3T109 35T69 83T55 141Q55 176 64 204T92 255T138 299ZM324 233Q290 269 227 311Q205 295 189 279Q172 262 161 243T146 202T141 149Q141 116 152 93T181 57T221 37T266 31Q280 31
297 36T329 54T354 86T364 136Q364 191 324 233ZM264 386Q270 382 277 378Q307 398 321 421Q338 448 338 491Q338 543 312 570T251 597Q214 597 192 576T168 512Q167 473 189 446T264 386Z" />
<glyph unicode="9" glyph-name="nine" horiz-adv-x="519" d="M373 113Q378 128 382 144Q351 119 322 107Q287 93 245 93Q203 93 166 106T101 145T57 205T40 283Q40 337 57 378T105 448T175 491T263 506Q378 506 431 439T484 242Q484 176 465 122T415 23T344 -55T259
-113T171 -151T90 -170Q83 -161 82 -153T80 -134Q159 -104 217 -68T315 13T373 113ZM351 167Q373 175 390 191Q392 213 392 235Q392 295 382 338T353 408T308 449T249 462Q223 462 202 451T166 420T142 374T133 318Q133 265 148 234T188 185T240 162T293 156Q323
156 351 167Z" />
<glyph unicode=":" glyph-name="colon" horiz-adv-x="240" d="M125 135Q151 135 165 118T180 83Q180 53 162 39T121 25Q94 25 79 40T64 78Q64 101 81 118T125 135ZM121 433Q147 433 161 416T176 381Q176 351 158 337T117 323Q90 323 75 338T60 376Q60 399 77 416T121
433Z" />
<glyph unicode=";" glyph-name="semicolon" horiz-adv-x="259" d="M143 421Q169 421 183 404T198 369Q198 339 180 325T139 311Q112 311 97 326T82 364Q82 387 99 404T143 421ZM165 97Q199 84 199 25Q199 -5 191 -33T167 -89T133 -140T92 -185Q72 -185 60 -170Q91
-135 107 -102T124 -43Q124 1 77 7Q77 17 78 35T85 67Q108 72 128 79T165 97Z" />
<glyph unicode="&lt;" glyph-name="less" horiz-adv-x="498" d="M434 19Q437 5 435 -11T424 -37Q373 2 328 35T239 99T149 163T49 232Q47 245 48 259T58 287L403 564Q419 560 429 554T450 537L98 258L434 19Z" />
<glyph unicode="=" glyph-name="equal" horiz-adv-x="540" d="M495 196Q495 181 493 170T484 148Q454 148 430 148T383 149H216Q189 149 162 149T107 148T44 147Q44 158 47 173T55 196H495ZM496 361Q496 346 494 335T485 313Q455 313 432 313T385 314H218Q191
314 164 314T109 313T47 312Q47 323 50 338T58 361H496Z" />
<glyph unicode="&gt;" glyph-name="greater" horiz-adv-x="492" d="M397 258L45 537Q55 548 65 554T92 564L437 287Q446 274 447 260T446 232Q392 196 346 164T256 100T167 35T71 -37Q63 -28 61 -12T61 19L397 258Z" />
<glyph unicode="?" glyph-name="question" horiz-adv-x="537" d="M274 714Q309 714 338 706T389 681T423 641T435 586Q435 537 413 501T363 431T313 359T290 269Q290 257 293 236T301 201Q292 196 284 195T265 193Q248 204 234 238T219 315Q219 348 228 373T252
420T282 459T313 495T336 532T346 577Q346 620 322 646T265 673Q227 673 206 643T177 544Q163 544 147 546T120 554Q121 572 122 586T123 614T123 641T120 671Q145 687 181 700T274 714ZM276 106Q303 106 318 88T334 51Q334 19 315 5T272 -9Q243 -9 228 6T212 46Q212
71 229 88T276 106Z" />
<glyph unicode="@" glyph-name="at" horiz-adv-x="1000" d="M503 467Q532 467 556 464Q573 462 594 458Q604 458 615 460Q630 462 644 467Q651 465 655 460T661 445T665 417T666 371V180Q666 143 667 121T671 88T682 73T702 69Q717 69 738 87T778 141T810 229T824
351Q824 405 806 453T750 539T657 597T527 619Q442 619 379 590T273 510T209 389T188 237Q188 159 209 88T275 -38T385 -125T541 -157Q624 -157 697 -130T823 -43Q848 -47 854 -68Q831 -100 797 -125T720 -167T628 -193T527 -202Q425 -202 350 -170T225 -81T151
56T126 228Q126 318 153 396T233 533T362 626T537 660Q621 660 684 636T789 571T852 476T873 359Q873 278 852 211T799 95T726 19T649 -9Q610 -9 596 17T581 89V163Q572 130 560 103Q538 52 508 22T440 -9Q384 -9 350 38T316 198Q316 257 329 306T368 391T427 447T503
467ZM585 368Q586 381 586 392Q567 406 545 413Q520 422 497 422Q449 422 428 377T406 228Q406 141 424 107T466 73Q478 73 496 89T531 139T564 223Q578 270 584 332Q585 350 585 368Z" />
<glyph unicode="A" glyph-name="A" horiz-adv-x="704" d="M319 678Q336 682 358 682L596 136Q608 108 617 90T635 62T652 47T673 40Q677 27 678 18T679 -3Q671 -3 657 -3T626 -1L593 0H565Q553 0 537 0T504 -1T474 -2T452 -3Q452 9 453 20T459 40Q480 42 491 46T507
58T508 81T495 118L451 220Q386 220 314 219Q245 218 186 216L160 147Q137 88 146 66T196 40Q203 23 203 -3Q186 -1 160 -1T108 0Q83 0 61 -1T25 -3Q25 7 26 18T32 39Q45 42 55 48T74 66T91 97T112 147L319 678ZM205 265H432L356 443Q349 458 344 471T333 497T321
525Q317 537 311 551Q301 518 292 494Q283 468 274 444L205 265Z" />
<glyph unicode="B" glyph-name="B" horiz-adv-x="632" d="M162 676Q198 676 234 677T305 678Q348 678 386 672T454 649T501 604T518 532Q518 467 479 422T373 367Q412 365 447 356T510 327T553 275T569 197Q569 156 556 120T513 58T439 16T329 0H262Q223 0 184
0T111 -1T57 -3Q57 26 62 40Q82 41 95 45T117 61T128 90T132 138V549Q132 599 118 616T63 636Q60 644 59 655T58 679Q78 677 106 677T162 676ZM226 331V138Q226 107 230 89T244 60T273 47T319 43Q393 43 427 80T462 183Q462 229 443 258T392 303T324 325T249 331H226ZM241
634Q234 633 226 631V376H257Q305 376 336 386T385 415T409 455T416 502Q416 541 402 567T366 608T318 630T267 636Q253 636 241 634Z" />
<glyph unicode="C" glyph-name="C" horiz-adv-x="653" d="M369 685Q432 685 483 672T591 633Q583 598 582 559T580 478Q567 473 555 471T527 469Q525 522 514 556T484 609T437 636T377 644Q314 644 269 621T196 560T154 472T140 370Q140 303 157 245T207 144T287
77T395 52Q443 52 493 68T585 111Q591 106 596 97T603 80Q573 57 545 41T486 13T424 -3T353 -9Q283 -9 225 16T124 88T59 200T35 343Q35 429 63 493T138 600T245 664T369 685Z" />
<glyph unicode="D" glyph-name="D" horiz-adv-x="731" d="M58 679Q68 678 83 678T116 677T151 676H185Q218 676 251 677T316 678Q382 678 450 666T572 620T661 522T696 355Q696 274 676 216T623 119T549 56T465 20T384 4T316 0H251Q214 0 178 0T109 -1T57 -3Q57
26 62 40Q82 41 95 45T117 61T128 90T132 138V549Q132 599 118 616T63 636Q60 644 59 655T58 679ZM226 138Q226 110 229 92T243 64T270 49T316 45Q376 45 426 59T514 108T572 198T593 340Q593 421 569 478T503 571T409 623T300 640Q282 640 261 638T226 631V138Z"
/>
<glyph unicode="E" glyph-name="E" horiz-adv-x="584" d="M486 679Q487 662 489 642T494 600T500 558T507 521Q499 514 488 512T462 509Q460 532 453 555T427 596T377 625T298 636H226V362H268Q299 362 320 365T354 378T373 403T379 443Q392 447 402 448T427 450Q425
424 425 395V283Q425 251 427 225Q413 225 403 226T381 230Q379 256 373 273T353 300T320 315T268 319H226V138Q226 110 229 92T243 64T270 49T316 45H322Q368 45 397 53T444 77T474 116T497 171Q512 166 522 161T541 147Q530 112 523 73T510 -2Q495 -2 474 -2T426
-1T372 0H251Q214 0 178 0T109 -1T57 -3Q57 26 62 40Q82 41 95 45T117 61T128 90T132 138V549Q132 599 118 616T63 636Q60 644 59 655T58 679Q73 678 96 678T143 677T190 676H226Q329 676 395 677T486 679Z" />
<glyph unicode="F" glyph-name="F" horiz-adv-x="542" d="M482 679Q483 662 485 642T490 600T496 558T503 521Q495 514 484 512T458 509Q456 532 449 555T423 596T373 625T294 636H225V342H274Q305 342 326 345T360 358T379 383T385 423Q398 427 408 428T433 430Q431
404 431 375V263Q431 231 433 205Q419 205 409 206T387 210Q385 236 379 253T359 280T326 295T274 299H225V147Q225 114 230 94T246 62T273 46T314 40Q319 26 319 -3Q296 -1 262 -1T193 0H155Q136 0 117 0T83 -1T57 -3Q57 26 62 40Q102 42 116 59T131 127V549Q131
599 117 616T62 636Q57 650 57 679Q73 678 95 678T139 677T184 676H225Q327 676 392 677T482 679Z" />
<glyph unicode="G" glyph-name="G" horiz-adv-x="731" d="M519 181Q519 215 516 234T504 264T478 277T433 281Q430 289 429 302T427 327Q446 325 482 325T549 324Q580 324 615 324T666 326Q666 317 665 304T660 281Q645 280 636 277T622 264T615 235T613 181V136Q613
115 615 98T626 66Q583 34 516 13T364 -9Q290 -9 230 16T126 88T59 200T35 347Q35 431 64 494T143 600T254 663T382 685Q454 685 515 672T622 638Q615 603 613 566T611 483Q587 474 558 474Q556 526 543 559T507 611T454 637T390 644Q326 644 279 621T202 560T156
473T141 369Q141 301 156 241T201 137T277 66T384 40Q414 40 437 43T485 56Q502 63 510 78T519 131V181Z" />
<glyph unicode="H" glyph-name="H" horiz-adv-x="754" d="M530 325H471Q426 325 379 325T286 322Q251 321 225 319V127Q225 77 239 60T294 40Q299 26 299 -3Q239 0 178 0Q149 0 116 0T57 -3Q57 26 62 40Q102 42 116 59T131 127V549Q131 599 117 616T62 636Q57
650 57 679Q112 676 178 676Q210 676 239 676T299 679Q299 650 294 636Q254 634 240 617T225 549V368H530V549Q530 599 516 616T461 636Q456 650 456 679Q511 676 577 676Q609 676 638 676T698 679Q698 650 693 636Q653 634 639 617T624 549V127Q624 77 638 60T693
40Q698 26 698 -3Q638 0 577 0Q548 0 515 0T456 -3Q456 26 461 40Q501 42 515 59T530 127V325Z" />
<glyph unicode="I" glyph-name="I" horiz-adv-x="355" d="M131 549Q131 599 117 616T62 636Q57 650 57 679Q112 676 178 676Q210 676 239 676T299 679Q299 650 294 636Q254 634 240 617T225 549V127Q225 77 239 60T294 40Q299 26 299 -3Q239 0 178 0Q149 0 116
0T57 -3Q57 26 62 40Q102 42 116 59T131 127V549Z" />
<glyph unicode="J" glyph-name="J" horiz-adv-x="338" d="M229 125Q229 55 223 1T196 -97T138 -177T35 -249Q21 -241 18 -223Q46 -199 68 -174T105 -119T127 -51T135 34V549Q135 599 121 616T66 636Q61 650 61 679Q83 677 116 677T182 676Q215 676 250 676T303
679Q303 650 298 636Q260 634 245 617T229 549V125Z" />
<glyph unicode="K" glyph-name="K" horiz-adv-x="678" d="M131 549Q131 599 117 616T62 636Q57 650 57 679Q112 676 178 676Q210 676 239 676T299 679Q299 650 294 636Q254 634 240 617T225 549V355L404 543Q430 570 441 587T453 615T443 630T417 636Q414 646
413 657T412 679Q429 677 457 677T515 676Q577 676 618 679Q618 669 617 657T612 636Q595 635 580 631T548 618T512 592T469 550L307 376Q341 347 372 305Q410 256 450 204Q474 172 500 143T552 91T604 55T656 40Q656 32 655 21T651 0Q613 0 571 -1T492 -6Q474
23 442 69T370 165T287 261Q254 298 225 325V127Q225 77 239 60T294 40Q299 26 299 -3Q239 0 178 0Q149 0 116 0T57 -3Q57 26 62 40Q102 42 116 59T131 127V549Z" />
<glyph unicode="L" glyph-name="L" horiz-adv-x="561" d="M322 45Q364 45 391 51T438 73T471 112T497 171Q512 166 522 161T541 147Q530 112 523 73T510 -2Q495 -2 474 -2T426 -1T372 0H251Q214 0 178 0T109 -1T57 -3Q57 26 62 40Q82 41 95 45T117 61T128 90T132
138V549Q132 599 118 616T63 636Q60 644 59 655T58 679Q73 678 89 677L122 676H179Q211 676 240 676T300 679Q300 650 295 636Q275 635 262 631T241 616T230 589T226 546V138Q226 110 229 92T243 64T270 49T316 45H322Z" />
<glyph unicode="M" glyph-name="M" horiz-adv-x="935" d="M162 676Q199 676 238 679L488 126L706 679Q723 677 743 677T784 676Q804 676 822 676T860 679Q860 668 859 658T855 636Q837 636 823 632T800 616T788 585T787 535L823 168Q827 131 832 107T845 69T866
49T896 41Q899 30 900 19T901 -3Q889 -2 874 -2T843 -1T810 0H781Q754 0 720 0T659 -3Q659 6 660 18T665 40Q689 42 703 48T723 66T729 100T726 155L690 498L483 -2Q466 -9 442 -9L209 497L177 176Q173 136 174 111T183 70T205 49T242 40Q245 29 246 17T247 -3Q223
-1 193 -1T140 0Q118 0 89 0T40 -3Q40 4 41 16T45 40Q65 42 78 48T101 69T116 112T126 185L158 541Q163 595 148 615T91 636Q88 646 87 658T86 679Q101 677 122 677T162 676Z" />
<glyph unicode="N" glyph-name="N" horiz-adv-x="758" d="M513 679Q535 677 560 677T607 676Q628 676 655 676T702 679Q702 669 701 658T697 636Q680 636 669 629T651 606T641 562T638 494V-4Q630 -7 619 -8T597 -9L182 533V187Q182 145 185 117T196 71T217 47T251
40Q254 31 255 21T256 -3Q233 -1 206 -1T157 0Q135 0 106 0T57 -3Q57 10 58 20T62 40Q82 40 95 47T117 71T128 116T131 187V600L127 605Q113 623 100 628T62 636Q59 647 58 659T57 679Q72 677 92 677T131 676Q171 676 198 679L587 163V494Q587 535 584 562T573
605T552 629T518 636Q515 653 514 661T513 679Z" />
<glyph unicode="O" glyph-name="O" horiz-adv-x="731" d="M35 340Q35 416 60 479T130 589T235 660T365 685Q437 685 497 660T602 590T671 481T696 340Q696 266 672 203T603 92T499 18T365 -9Q291 -9 230 17T126 91T59 201T35 340ZM138 367Q138 304 154 245T201
141T279 68T385 40Q434 40 472 61T538 120T579 207T593 314Q593 381 574 440T522 543T444 612T344 637Q300 637 262 618T197 563T154 478T138 367Z" />
<glyph unicode="P" glyph-name="P" horiz-adv-x="583" d="M250 638Q240 637 225 634V147Q225 114 230 94T246 62T273 46T314 40Q319 26 319 -3Q296 -1 262 -1T193 0H155Q136 0 117 0T83 -1T57 -3Q57 26 62 40Q102 42 116 59T131 127V549Q131 599 117 616T62 636Q57
650 57 679Q96 677 132 677T193 676Q219 676 255 677T335 678Q390 678 430 662T496 619T534 554T547 475Q547 437 533 398T491 326T420 274T320 253Q299 253 282 256T250 264Q248 272 248 281T251 297Q276 291 306 291Q334 291 360 298T406 323T439 372T452 451Q452
493 442 527T411 587T358 626T281 640Q264 640 250 638Z" />
<glyph unicode="Q" glyph-name="Q" horiz-adv-x="751" d="M35 340Q35 416 60 479T130 589T235 660T365 685Q437 685 497 660T602 590T671 481T696 340Q696 266 672 203T603 92T498 18Q491 14 483 11Q517 1 543 -14Q579 -35 611 -55T679 -89T766 -98Q766 -107 765
-117T760 -138Q731 -147 703 -157T636 -184Q603 -176 581 -161T542 -128T508 -90T473 -54T428 -25T367 -9H365Q291 -9 230 17T126 91T59 201T35 340ZM138 367Q138 304 154 245T201 141T279 68T385 40Q434 40 472 61T538 120T579 207T593 314Q593 381 574 440T522
543T444 612T344 637Q300 637 262 618T197 563T154 478T138 367Z" />
<glyph unicode="R" glyph-name="R" horiz-adv-x="685" d="M177 676Q219 676 260 677T344 678Q401 678 442 665T509 630T549 577T562 510Q562 440 514 392Q470 348 395 328Q408 316 419 304Q433 289 446 271T473 228T506 169Q541 106 575 74T659 40Q659 28 659
18T655 -3Q617 -3 576 -4T498 -9Q482 16 459 57T412 146Q389 192 356 236Q330 272 298 305Q257 303 225 305V127Q225 77 239 60T291 40Q294 31 295 20T296 -3Q264 -1 230 -1T177 0H148Q132 0 116 0T84 -1T57 -3Q57 8 58 19T62 40Q102 42 116 59T131 127V549Q131
599 117 617T62 636Q59 646 58 656T57 678Q72 677 107 677T177 676ZM258 640Q242 638 225 634V354Q235 352 244 352Q256 351 269 351Q310 351 345 359T407 386T449 433T464 500Q464 563 427 602T299 642Q276 642 258 640Z" />
<glyph unicode="S" glyph-name="S" horiz-adv-x="535" d="M264 685Q320 685 360 672T421 641Q421 612 422 574T427 509Q416 504 401 502T371 500Q363 543 353 570T330 613T300 635T264 641Q219 641 193 615T167 541Q167 497 190 469T247 419T322 378T396 333T454
271T477 180Q477 142 462 108T419 47T355 6T274 -9Q239 -9 213 -6T164 5T119 25T68 55Q74 93 75 131T77 197Q88 200 103 201T131 203Q133 165 141 135T165 84T209 51T279 39Q307 39 328 47T363 70T384 102T392 142Q392 187 369 215T312 263T237 302T162 346T104
410T81 509Q81 548 94 580T132 636T189 672T264 685Z" />
<glyph unicode="T" glyph-name="T" horiz-adv-x="585" d="M249 637H198Q159 637 137 628T101 603T82 566T71 520Q60 520 47 522T25 529Q33 564 37 604T41 679Q83 677 151 677T296 676H371Q408 676 441 676T503 677T553 679Q553 611 559 529Q548 524 536 522T511
520Q509 574 482 605T391 637H343V127Q343 102 346 86T357 60T381 46T421 40Q426 26 426 -3Q394 -1 361 -1T295 0Q263 0 228 0T164 -3Q164 26 169 40Q193 41 208 45T233 59T245 85T249 127V637Z" />
<glyph unicode="U" glyph-name="U" horiz-adv-x="705" d="M585 269Q585 226 583 193T574 133T556 86T528 48Q499 19 458 5T366 -9Q296 -9 249 6T174 52T133 128T121 231V549Q121 576 119 592T110 617T92 630T62 636Q59 647 58 658T57 679Q77 677 109 677T173 676Q204
676 235 676T289 679Q289 669 288 658T284 636Q262 634 249 631T228 618T218 593T215 549V245Q215 203 223 166T250 102T302 60T385 44Q410 44 440 52T491 82Q503 94 511 108T524 143T531 192T534 261V509Q534 545 532 568T522 606T501 627T465 636Q462 651 461
659T460 679Q477 677 504 677T554 676Q577 676 603 676T649 679Q649 672 648 663T644 636Q627 634 616 628T597 607T588 569T585 509V269Z" />
<glyph unicode="V" glyph-name="V" horiz-adv-x="686" d="M225 527Q268 429 309 330Q347 239 386 141Q421 230 453 316Q489 412 523 514Q542 569 534 600T479 636Q476 647 475 659T474 679Q496 677 516 677T559 676Q582 676 610 676T661 679Q661 668 660 658T656
636Q625 628 608 598T572 518Q525 388 478 259T379 -2Q362 -6 340 -6Q311 67 282 139T224 278T169 407T118 521Q101 558 91 580T71 614T53 630T30 636Q27 648 26 659T25 679Q45 677 79 677T146 676Q210 676 267 679Q267 659 262 636Q238 634 224 630T205 614T205
582T225 527Z" />
<glyph unicode="W" glyph-name="W" horiz-adv-x="1003" d="M25 679Q49 677 82 677T138 676H165Q180 676 196 676T229 677T259 679Q259 671 258 660T254 636Q228 634 213 631T193 617T191 586T207 533Q223 487 241 435T277 330T312 223Q322 191 332 161L503 679Q511
682 521 683T547 684Q572 619 599 549T654 406T707 263Q726 211 744 162L841 494Q852 532 855 557T853 599T832 624T793 636Q789 646 788 658T786 679Q828 676 883 676Q906 676 932 676T978 679Q978 669 977 658T971 636Q958 633 948 626T929 602T909 560T887 491L741
-3Q724 -9 701 -9Q678 55 652 124T600 263T546 402Q522 462 500 519L330 -3Q322 -6 310 -7T287 -9Q244 125 200 257T109 521Q95 561 86 583T69 617T52 631T30 636Q27 646 26 657T25 679Z" />
<glyph unicode="X" glyph-name="X" horiz-adv-x="638" d="M267 529Q309 465 348 403L422 518Q442 550 451 571T458 606T443 626T407 636Q404 647 403 659T402 679Q427 677 454 677T504 676Q527 676 555 676T603 679Q603 669 603 658T599 636Q587 633 576 628T552
610T523 576T484 521L377 358Q381 350 386 343Q444 251 500 157Q521 122 536 100T563 66T586 48T609 40Q615 22 615 -3Q593 -1 559 -1T493 0Q462 0 429 0T372 -2Q372 7 373 18T376 40Q395 42 407 46T422 62T418 92T392 144Q350 214 307 284L220 155Q182 99 184
74T237 40Q240 29 241 18T242 -3Q216 -1 188 -1T132 0Q104 0 76 0T28 -3Q28 5 29 18T34 42Q58 48 87 70T153 144L281 327L279 330Q221 422 159 516Q132 556 117 579T90 613T71 629T50 635Q46 647 45 657T44 679Q70 677 103 677T166 676Q194 676 229 676T287 678Q287
669 286 658T283 636Q262 632 250 626T236 607T241 576T267 529Z" />
<glyph unicode="Y" glyph-name="Y" horiz-adv-x="630" d="M366 295V163Q366 123 368 100T379 65T402 48T443 40Q449 22 449 -3L383 -1Q350 0 322 0H286Q267 0 248 0T213 -1T186 -2Q186 9 187 20T192 40Q219 42 234 46T258 62T269 94T272 150V294L105 578Q95 594
88 605T72 623T55 633T31 637Q27 648 26 657T25 678Q46 677 73 677T129 676H198Q217 676 234 676T263 678Q263 667 262 659T258 639Q219 635 214 619T231 564Q261 512 295 451Q324 399 349 349Q373 396 399 443Q429 499 455 544Q483 593 476 612T428 637Q425 648
423 657T421 678Q439 676 467 676H519Q542 676 565 676T605 678Q605 658 601 639Q587 635 576 629T553 610T528 579T499 531L366 295Z" />
<glyph unicode="Z" glyph-name="Z" horiz-adv-x="631" d="M102 678Q117 678 148 678T214 677T285 676H440Q484 676 538 678Q543 673 546 664T549 645Q456 482 363 329Q276 184 185 42H339Q385 42 415 46T465 64T496 103T516 169Q549 166 568 152Q560 119 556 78T550
-3Q513 -2 481 -2T417 -1T354 0H221Q188 0 159 0T105 -1T66 -3Q62 5 60 12T58 29Q154 184 247 336Q337 484 425 636H283Q250 636 227 632T187 613T159 574T140 508Q127 508 110 510T83 518Q92 550 97 593T102 678Z" />
<glyph unicode="[" glyph-name="bracketleft" horiz-adv-x="310" d="M70 742Q96 740 120 740H211Q232 740 261 742Q268 736 270 726T272 704Q232 701 207 697T166 683T146 656T140 610V-157Q140 -181 147 -194T170 -215T208 -225T261 -229Q268 -237 270 -246T272
-269Q251 -267 223 -267H123Q96 -267 70 -269V742Z" />
<glyph unicode="\" glyph-name="backslash" horiz-adv-x="364" d="M25 709Q30 711 36 712T51 713Q70 713 78 709L341 0Q333 -3 315 -4T289 -3L25 709Z" />
<glyph unicode="]" glyph-name="bracketright" horiz-adv-x="309" d="M246 -269Q220 -267 192 -267H92Q65 -267 44 -269Q44 -255 46 -246T55 -229Q85 -228 108 -226T146 -216T168 -195T176 -157V610Q176 639 171 656T150 682T110 696T44 704Q44 715 46 725T55
742Q84 740 104 740H195Q220 740 246 742V-269Z" />
<glyph unicode="^" glyph-name="asciicircum" horiz-adv-x="556" d="M277 644Q221 578 167 511T70 383Q59 393 53 403T43 430L249 685Q260 692 275 694T304 694Q324 663 350 626T403 549T457 473T508 404Q499 396 483 394T452 394L277 644Z" />
<glyph unicode="_" glyph-name="underscore" horiz-adv-x="566" d="M506 -92Q506 -103 503 -118T495 -142Q457 -142 429 -142T374 -141H222Q199 -141 175 -141T122 -142T60 -143Q60 -110 71 -92H506Z" />
<glyph unicode="`" glyph-name="grave" horiz-adv-x="266" d="M156 537Q147 532 137 532T116 535Q81 589 51 629T-11 704Q9 714 34 715T85 712Q98 669 115 626T156 537Z" />
<glyph unicode="a" glyph-name="a" horiz-adv-x="483" d="M306 227Q280 224 252 219T201 202T163 172T147 119Q147 82 165 65T206 48Q222 48 239 56T272 81T296 124T306 189V227ZM396 149Q396 101 406 85T453 69Q453 58 452 45T446 22Q420 18 391 10T340 -9Q330
-5 323 6T315 40Q315 55 316 65T317 82Q313 69 306 56T280 27Q263 12 239 3T180 -7Q115 -7 83 21T50 99Q50 148 78 178T147 227T231 254T306 268Q306 299 305 319T302 352T296 375T285 392Q261 422 221 422Q198 422 182 410T156 381T141 343T135 306Q124 306 108
307T83 313Q85 338 84 368T78 422Q118 442 162 454T253 467Q287 467 311 457T354 428Q367 415 375 400T387 365T394 318T396 256V149Z" />
<glyph unicode="b" glyph-name="b" horiz-adv-x="547" d="M258 -9Q189 -9 141 10T63 59Q73 72 79 99T85 186V575Q85 593 83 606T73 628T50 641T10 646Q10 657 12 666T19 683Q30 683 49 686T88 693T126 704T153 717Q162 714 168 705T175 677V416Q175 398 172 381Q171
377 170 371Q178 386 183 393Q190 404 202 417T233 441T273 459T320 467Q408 467 457 414T507 245Q507 192 489 146T439 66T360 11T258 -9ZM175 72Q189 60 204 51Q228 37 263 37Q284 37 309 45T356 75T393 134T408 232Q408 280 397 313T369 366T332 395T296 404Q274
404 253 394T214 361T186 302T175 213V72Z" />
<glyph unicode="c" glyph-name="c" horiz-adv-x="447" d="M412 78Q385 35 345 13T248 -9Q210 -9 173 6T106 50T58 124T40 227Q40 272 53 315T93 392T158 446T248 467Q342 467 399 422Q394 393 393 365T392 308Q384 303 371 302T346 300Q340 358 312 389T240 420Q190
420 162 374T133 242Q133 204 142 169T170 107T214 64T276 48Q343 48 387 106Q395 102 402 95T412 78Z" />
<glyph unicode="d" glyph-name="d" horiz-adv-x="562" d="M289 467Q318 467 339 462Q354 458 372 453V575Q372 593 370 606T360 628T337 641T297 646Q297 657 299 666T306 683Q317 683 336 686T375 693T413 704T440 717Q449 714 455 705T462 677V127Q463 96 475
82T529 65Q529 54 528 44T523 22Q512 22 496 20T463 13T431 3T407 -9Q398 -6 390 4T382 40Q382 58 383 76Q384 89 387 108Q383 98 378 90Q369 73 364 65Q357 54 345 41T314 17T274 -1T227 -9Q139 -9 90 44T40 213Q40 265 58 311T108 392T187 447T289 467ZM361 156Q370
186 372 229V385Q358 397 342 407Q319 421 284 421Q263 421 238 413T191 383T154 324T139 226Q139 178 150 145T178 92T214 63T251 54Q273 54 294 64T333 97T361 156Z" />
<glyph unicode="e" glyph-name="e" horiz-adv-x="474" d="M203 223Q170 222 139 220Q140 198 144 177Q151 141 167 112T212 65T284 47Q317 47 349 61T406 105Q414 100 421 91T430 74Q395 29 351 10T252 -9Q199 -9 159 10T93 61T53 136T40 229Q40 277 54 320T95
396T160 448T247 467Q296 467 330 451T386 406T419 341T434 260Q430 240 419 226H368Q334 226 292 226T203 223ZM146 332Q140 307 138 271H330Q330 337 306 378T238 419Q220 419 202 412T170 385T146 332Z" />
<glyph unicode="f" glyph-name="f" horiz-adv-x="342" d="M206 448H308Q308 438 306 426T298 403Q245 403 206 391V147Q206 114 211 94T227 62T254 46T295 40Q300 26 300 -3Q277 -1 243 -1T174 0H137Q118 0 100 0T67 -1T42 -3Q42 26 47 40Q87 42 101 59T116 127V394Q94
399 73 401T36 403Q36 430 50 448H116V488Q116 544 134 586T181 657T248 700T325 714Q364 714 383 707T420 689Q418 657 417 628T416 572Q403 568 388 566T359 564Q359 605 341 632T281 659Q240 659 223 623T206 519V448Z" />
<glyph unicode="g" glyph-name="g" horiz-adv-x="511" d="M237 467Q272 467 300 458H464Q468 445 469 429T471 396Q459 399 443 402T411 407T378 412H374L378 408Q400 384 410 356T420 307Q420 272 409 242T374 188T317 152T239 139Q203 139 170 149Q166 151 162
152Q151 141 145 131Q137 116 137 105Q137 91 141 83T161 71T205 65T282 63Q332 63 366 57T422 38T453 4T463 -48Q463 -82 445 -117T393 -182T315 -230T215 -249Q122 -249 82 -215T41 -114Q41 -76 61 -48Q79 -23 114 -6Q104 -2 96 2Q80 13 74 29T67 68Q67 101 86
132Q100 155 120 174L112 180Q87 200 72 230T57 301Q57 335 68 365T102 418T158 454T237 467ZM215 -17Q183 -17 160 -15Q143 -30 136 -46Q127 -66 127 -93Q127 -144 152 -170T239 -196Q272 -196 298 -187T342 -163T370 -128T380 -87Q380 -68 374 -55T349 -33T299
-21T215 -17ZM227 422Q207 422 193 413T168 389T154 355T149 314Q149 251 176 218T251 185Q284 185 305 212T326 292Q326 319 320 342T300 383T269 411T227 422Z" />
<glyph unicode="h" glyph-name="h" horiz-adv-x="595" d="M496 127Q496 75 510 58T555 40Q558 31 559 21T560 -3Q538 -1 510 -1T451 0Q420 0 388 -1T332 -3Q332 26 337 40Q373 40 389 58T406 127V279Q406 314 399 337T380 375T350 395T313 401Q293 401 273 392T237
363T211 312T200 234V127Q200 77 215 59T269 40Q272 31 273 21T274 -3Q253 -2 220 -1T155 0Q124 0 91 0T36 -3Q36 26 41 40Q80 40 95 58T110 127V575Q110 593 108 606T98 628T75 641T35 646Q35 657 37 666T44 683Q55 683 74 686T113 693T151 704T178 717Q187 714
193 705T200 677V423Q200 411 199 396T193 364Q196 369 199 375T208 390Q216 402 230 414T262 437T303 455T353 462Q381 462 407 454T453 426T484 376T496 299V127Z" />
<glyph unicode="i" glyph-name="i" horiz-adv-x="302" d="M89 638Q89 665 107 682T148 699Q175 699 191 682T208 638Q208 615 191 598T148 580Q122 580 106 597T89 638ZM201 127Q201 77 214 59T260 40Q263 29 264 17T265 -3Q239 -1 210 -1T152 0Q123 0 93 0T37
-3Q37 7 38 18T42 40Q82 40 96 58T111 127V325Q111 343 109 356T99 378T76 391T36 396Q36 407 38 416T45 433Q56 433 75 436T114 443T152 454T179 467Q188 464 194 455T201 427V127Z" />
<glyph unicode="j" glyph-name="j" horiz-adv-x="283" d="M111 325Q111 343 109 356T99 378T76 391T36 396Q36 407 38 416T45 433Q56 433 75 436T114 443T152 454T179 467Q188 464 194 455T201 427V23Q201 -28 186 -71T146 -148T93 -208T35 -249Q27 -245 21 -238T13
-221Q43 -187 62 -158T92 -101T107 -43T111 26V325ZM89 638Q89 665 107 682T148 699Q175 699 191 682T208 638Q208 615 191 598T148 580Q122 580 106 597T89 638Z" />
<glyph unicode="k" glyph-name="k" horiz-adv-x="545" d="M110 575Q110 593 108 606T98 628T75 641T35 646Q35 657 37 666T44 683Q55 683 74 686T113 693T151 704T178 717Q187 714 193 705T200 677V261L267 323Q301 354 316 373T331 403Q331 419 302 419Q296 438
296 460Q328 458 354 458H442Q467 458 494 460Q494 450 493 439T487 418Q458 417 430 404T365 357L278 278Q286 268 295 258Q313 239 332 216T373 166T421 106Q438 85 450 73T473 54T496 46T525 43Q525 14 520 0Q484 0 455 -2T392 -9Q379 12 355 45T301 115T240
187Q219 212 200 232V127Q200 77 213 59T259 40Q262 29 263 17T264 -3Q238 -1 209 -1T151 0Q122 0 92 0T36 -3Q36 7 37 18T41 40Q81 40 95 58T110 127V575Z" />
<glyph unicode="l" glyph-name="l" horiz-adv-x="300" d="M110 575Q110 593 108 606T98 628T75 641T35 646Q35 657 37 666T44 683Q55 683 74 686T113 693T151 704T178 717Q187 714 193 705T200 677V127Q200 77 213 59T259 40Q262 29 263 17T264 -3Q238 -1 209
-1T151 0Q122 0 92 0T36 -3Q36 7 37 18T41 40Q81 40 95 58T110 127V575Z" />
<glyph unicode="m" glyph-name="m" horiz-adv-x="884" d="M45 433Q58 434 76 437T112 445T147 455T174 467Q183 464 189 455T196 427Q196 410 194 389Q194 379 192 364Q196 373 198 378Q205 391 208 395Q216 407 229 419T261 442T302 460T351 467Q393 467 428
448T479 383Q482 373 483 358Q486 367 489 373Q494 382 500 390Q508 402 521 414T553 437T594 455T643 462Q671 462 696 454T741 426T772 376T784 299V127Q784 101 787 85T798 59T817 45T844 40Q847 31 848 21T849 -3Q826 -1 798 -1T740 0Q710 0 678 0T621 -3Q621
26 626 40Q666 42 680 59T695 127V279Q695 314 688 337T669 375T640 395T603 401Q584 401 564 392T528 363T502 312T492 234V127Q492 101 496 85T508 59T529 45T562 40Q565 31 566 21T567 -3Q541 -1 509 -1T448 0Q419 0 388 0T329 -3Q329 26 334 40Q374 42 388
59T403 127V284Q403 319 396 342T377 380T348 400T311 406Q292 406 272 397T236 368T210 317T200 239V127Q200 77 215 60T270 40Q273 31 274 21T275 -3Q249 -1 216 -1T156 0Q130 0 96 0T37 -3Q37 26 42 40Q82 42 96 59T111 127V325Q111 343 109 356T98 377T76 390T36
396Q36 407 38 416T45 433Z" />
<glyph unicode="n" glyph-name="n" horiz-adv-x="596" d="M497 127Q497 75 511 58T556 40Q559 31 560 21T561 -3Q539 -1 511 -1T452 0Q421 0 389 -1T333 -3Q333 26 338 40Q374 40 390 58T407 127V279Q407 314 400 337T381 375T351 395T314 401Q294 401 274 392T238
363T212 312T201 234V127Q201 77 216 59T270 40Q273 31 274 21T275 -3Q254 -2 221 -1T156 0Q125 0 92 0T37 -3Q37 26 42 40Q81 40 96 58T111 127V325Q111 343 109 356T98 377T76 390T36 396Q36 407 38 416T45 433Q60 434 78 437T115 445T150 455T179 467Q188 464
194 455T201 423Q201 411 200 396T194 364Q197 369 200 375T209 390Q217 402 231 414T263 437T304 455T354 462Q382 462 408 454T454 426T485 376T497 299V127Z" />
<glyph unicode="o" glyph-name="o" horiz-adv-x="532" d="M141 250Q141 148 177 94T274 39Q334 39 363 88T392 217Q392 263 381 300T352 364T309 405T256 419Q198 419 170 372T141 250ZM40 229Q40 280 56 323T103 399T174 449T266 467Q319 467 361 450T432 402T476
326T492 229Q492 178 476 134T430 59T359 9T266 -9Q215 -9 173 8T102 56T56 131T40 229Z" />
<glyph unicode="p" glyph-name="p" horiz-adv-x="572" d="M283 -9Q254 -9 233 -4Q218 0 200 4V-107Q201 -136 206 -153T223 -181T250 -196T289 -202Q294 -216 294 -245Q271 -243 237 -243T168 -242H131Q112 -242 94 -242T61 -243T36 -245Q36 -216 41 -202Q81 -200
95 -183T110 -115V325Q110 343 108 356T97 377T75 390T35 396Q35 407 37 416T44 433Q59 434 77 437T114 445T149 455T178 467Q187 464 193 455T200 423Q200 400 193 379Q189 366 183 348L193 368Q203 385 208 393Q215 404 227 417T258 441T298 459T345 467Q433
467 482 415T532 254Q532 198 514 150T464 67T385 11T283 -9ZM210 301Q201 270 200 228V72Q214 60 229 51Q253 37 288 37Q309 37 334 45T381 75T418 134T433 232Q433 311 401 357T321 404Q299 404 278 394T239 361T210 301Z" />
<glyph unicode="q" glyph-name="q" horiz-adv-x="546" d="M293 -202Q317 -201 332 -197T356 -183T368 -157T372 -115V20Q372 45 376 70Q379 89 384 116Q380 106 376 96Q367 75 358 63Q348 50 333 39T301 18T264 4T224 -1Q188 -1 155 12T96 53T55 120T40 214Q40
265 57 311T107 391T184 446T284 467Q353 467 401 449T482 400Q472 385 467 361T462 291V-115Q462 -165 476 -182T531 -202Q534 -211 535 -221T536 -245Q527 -244 513 -244T481 -243T446 -242H412Q380 -242 347 -242T288 -245Q288 -216 293 -202ZM361 151Q370 180
372 221V386Q361 398 337 409T288 421Q222 421 181 371T139 227Q139 180 150 148T178 97T218 69T261 60Q278 60 297 68T333 97T361 151Z" />
<glyph unicode="r" glyph-name="r" horiz-adv-x="419" d="M209 298Q202 276 201 253V147Q201 114 206 94T222 62T249 46T290 40Q295 26 295 -3Q272 -1 238 -1T169 0H132Q113 0 95 0T62 -1T37 -3Q37 26 42 40Q82 42 96 59T111 127V325Q111 343 109 356T98 377T76
390T36 396Q36 407 38 416T45 433Q60 434 78 437T115 445T150 455T179 467Q188 464 194 455T201 423Q201 388 195 361L186 320Q192 335 195 347Q201 365 209 377Q231 412 261 435T330 458Q350 458 366 452T399 434Q395 409 394 376T392 316Q383 313 368 310T335
307Q333 355 320 370T286 385Q273 385 258 374T231 344T209 298Z" />
<glyph unicode="s" glyph-name="s" horiz-adv-x="428" d="M355 432Q353 408 353 381T357 328Q337 316 307 316Q305 337 297 356T274 391T239 416T195 426Q164 426 146 411T127 371Q127 358 130 348T146 328T182 306T246 278Q286 263 313 248T357 216T381 179T388
132Q388 100 374 74T336 30T278 1T205 -9Q175 -9 152 -7T110 0T74 12T40 28Q41 40 42 56T43 89T43 123T41 152Q49 158 63 160T93 163Q101 100 132 69T215 38Q256 38 278 56T301 102Q301 115 297 125T280 145T247 165T193 190Q152 206 124 220T79 252T53 290T45
342Q45 374 61 397T103 436T157 459T211 467Q256 467 290 458T355 432Z" />
<glyph unicode="t" glyph-name="t" horiz-adv-x="351" d="M92 448V580Q112 585 132 596T167 620Q172 618 175 616T180 608T182 593T183 568V448H312Q312 426 303 404Q230 401 183 391V141Q183 90 198 68T240 45Q261 45 276 51T306 69Q319 54 321 36Q304 17 272
4T208 -9Q148 -9 120 21T92 120V391Q77 396 61 399T20 404Q20 417 22 426T29 448H92Z" />
<glyph unicode="u" glyph-name="u" horiz-adv-x="563" d="M371 330Q371 348 369 361T358 382T336 395T296 401Q296 412 297 420T303 438Q342 440 379 448T439 467Q448 464 454 455T461 423V136Q461 118 463 105T472 84T492 71T528 65Q528 54 527 44T522 22Q511
22 494 20T460 13T427 3T402 -9Q393 -6 385 4T377 40Q377 60 379 80V89Q369 67 349 47Q298 -4 228 -4Q193 -4 166 5T119 34T91 89T81 174V325Q81 343 80 356T71 377T51 390T15 396Q15 407 16 415T22 433Q37 434 54 437T89 445T121 455T149 467Q158 464 164 455T171
423V196Q171 120 191 89T261 57Q281 57 301 67T336 98T361 151T371 228V330Z" />
<glyph unicode="v" glyph-name="v" horiz-adv-x="544" d="M335 461Q355 459 380 459T428 458Q451 458 477 458T521 461Q521 436 512 418Q500 415 491 409T472 391T454 359T432 309L298 -9Q286 -9 274 -7T252 0Q246 14 234 43T205 108T171 183T137 256T109 317T91
355Q81 375 74 387T61 405T47 414T29 418Q25 431 24 439T23 461Q65 458 128 458Q160 458 193 458T251 461Q251 450 249 440T244 420Q219 418 205 415T185 404T183 384T195 351Q202 336 215 305T245 236T279 158Q292 126 303 100Q325 157 342 203Q362 255 379 300Q404
365 394 390T346 419Q335 439 335 461Z" />
<glyph unicode="w" glyph-name="w" horiz-adv-x="774" d="M434 458Q450 422 468 379T506 290T546 195Q562 156 577 118L631 288Q643 324 645 348T641 386T622 408T591 417Q582 438 582 461Q601 459 625 459T671 458Q724 458 759 461Q759 436 751 417Q740 414 732
408T715 388T698 351T677 291L576 -9Q562 -9 551 -7T530 0Q513 42 494 87T455 179T415 270Q402 300 390 328L259 -9Q242 -9 233 -7T215 0Q183 91 149 179T77 358Q66 386 55 398T21 417Q17 427 16 439T15 460Q35 459 57 459T113 458Q146 458 171 458T223 461Q223
451 222 438T218 417Q176 412 170 399T175 357Q199 298 224 229Q246 171 265 119L394 462Q404 462 415 461T434 458Z" />
<glyph unicode="x" glyph-name="x" horiz-adv-x="521" d="M302 102Q288 123 272 146Q259 167 244 187L203 126Q171 80 177 60T212 40Q215 32 216 21T218 -2Q190 0 159 0H81Q61 0 30 -2Q30 9 31 20T36 40Q49 41 61 45T87 59T114 86T148 129L217 226Q198 252 180
278Q159 308 142 331Q121 359 107 376T83 403T65 415T44 420Q37 435 37 460Q59 459 86 459T142 458H201Q231 458 257 460Q257 450 256 439T252 420Q217 418 211 404T237 346L259 316Q270 301 282 284L322 346Q348 386 346 402T311 420Q307 429 306 439T305 460Q324
459 344 459T394 458Q424 458 443 458T478 460Q478 449 476 439T472 420Q461 419 452 417T433 407T412 386T385 351L311 246Q332 218 354 188Q381 151 401 122Q417 98 429 83T450 58T468 44T487 40Q491 30 491 21T492 -2Q461 0 437 0H331Q301 0 272 -2Q272 11 272
21T276 40Q311 41 318 54T302 102Z" />
<glyph unicode="y" glyph-name="y" horiz-adv-x="551" d="M384 298Q397 330 399 351T396 385T376 406T339 417Q332 437 332 460Q355 458 379 458H483Q508 458 531 460Q531 450 531 439T525 417Q511 414 501 408T483 391T465 360T444 313L297 -37Q268 -105 246
-147T205 -211T166 -241T123 -249Q93 -249 76 -242T48 -226Q44 -211 45 -189T49 -153Q83 -159 113 -159Q142 -159 168 -146T214 -100Q221 -90 231 -69T255 -17Q258 -12 260 -7Q245 26 229 62Q210 106 191 148T155 228T124 294Q106 331 94 354T70 390T49 408T26
417Q20 435 20 460Q49 459 78 459T133 458H197L233 459Q251 460 266 460Q266 434 259 417Q232 412 217 405T197 386T197 354T216 307Q226 285 239 257T265 198T291 137Q299 118 305 101Q310 112 315 124L384 298Z" />
<glyph unicode="z" glyph-name="z" horiz-adv-x="501" d="M67 461Q82 460 104 460T151 459T201 458H297Q322 458 346 458T391 459T427 461Q434 453 437 441T440 418Q423 393 400 361T352 294T300 222T248 151T200 85Q184 63 170 45H297Q324 45 341 49T370 64T386
98T395 156Q407 156 420 155T448 150Q448 138 448 121T450 85T452 48T456 17Q452 9 444 4T424 -2Q405 -2 387 -2T348 -1T302 0H245Q179 0 137 0T67 -2Q60 5 56 15T51 38Q68 62 92 95T142 166T196 242T248 316T292 380Q306 400 315 414H223Q196 414 178 410T148
394T127 362T112 308Q100 308 86 309T60 316Q63 349 65 386T67 461Z" />
<glyph unicode="{" glyph-name="braceleft" horiz-adv-x="352" d="M277 741Q286 727 286 714Q235 697 218 665T200 591Q200 568 203 544T211 495L219 446Q223 422 223 399Q223 373 218 350T199 306T160 271T96 246Q135 236 159 220T198 183T218 138T224 86Q224
37 214 -14T204 -113Q204 -135 208 -154T222 -191T249 -221T292 -242Q292 -252 292 -258T286 -271Q235 -255 204 -233T154 -183T130 -126T124 -63Q124 -25 128 12T133 84Q133 108 129 130T115 170T85 203T35 228Q35 237 35 244T40 260Q69 270 87 283T116 314T131
352T135 394Q135 430 129 470T123 549Q123 578 129 605T152 658T199 704T277 741Z" />
<glyph unicode="|" glyph-name="bar" horiz-adv-x="175" d="M62 712Q77 712 89 710T112 701V606Q112 553 112 493T111 366V101Q111 35 111 -26T112 -142V-241Q101 -241 85 -238T62 -230V712Z" />
<glyph unicode="}" glyph-name="braceright" horiz-adv-x="331" d="M48 741Q96 725 126 704T173 658T196 606T202 549Q202 510 196 470T190 394Q190 372 194 352T208 315T237 284T285 260Q289 251 289 244T290 228Q260 218 241 204T211 171T196 130T192 84Q192
49 196 12T201 -63Q201 -95 195 -125T171 -183T122 -232T39 -271Q34 -265 34 -259T33 -242Q85 -226 103 -192T121 -113Q121 -66 111 -15T101 86Q101 113 106 137T126 183T165 220T229 246Q190 255 165 270T126 306T107 349T102 399Q102 422 106 446L114 495Q118
520 121 544T125 591Q125 632 108 664T39 714Q39 727 48 741Z" />
<glyph unicode="~" glyph-name="asciitilde" horiz-adv-x="585" d="M63 213Q45 221 42 239Q83 294 120 314T192 335Q220 335 247 326T300 307T354 287T408 278Q433 278 458 288T511 323Q522 322 528 320T543 310Q501 256 465 236T397 216Q370 216 345 225T294
247T242 268T188 278Q159 278 129 264T63 213Z" />
<glyph unicode="&#xa0;" glyph-name="uni00A0" horiz-adv-x="200" />
<glyph unicode="&#xa1;" glyph-name="exclamdown" horiz-adv-x="411" d="M145 -242Q124 -235 127 -211Q132 -165 137 -110T146 3T155 121T161 237Q173 237 185 237T206 232Q210 163 214 104T223 -8T233 -110T246 -209Q236 -211 222 -215T194 -223T166 -233T145
-242ZM180 357Q154 357 140 374T125 409Q125 439 143 453T184 467Q211 467 226 452T241 414Q241 391 224 374T180 357Z" />
<glyph unicode="&#xa2;" glyph-name="cent" horiz-adv-x="453" d="M412 78Q385 35 345 13Q315 -3 276 -7V-54Q277 -95 277 -141Q266 -141 250 -138T227 -130V-8Q199 -5 172 6Q135 21 106 50T58 124T40 227Q40 272 53 315T93 392T158 446Q189 462 227 466V612Q242
612 254 610T277 601V521Q277 495 276 466Q351 460 399 422Q394 393 393 365T392 308Q384 303 371 302T346 300Q340 358 312 389Q296 406 276 414V48Q343 48 387 106Q395 102 402 95T412 78ZM161 374Q133 328 133 242Q133 204 142 169T170 107T214 64Q220 60 227
57V419Q186 414 161 374Z" />
<glyph unicode="&#xa3;" glyph-name="sterling" horiz-adv-x="600" d="M498 100Q519 97 536 80Q511 61 485 36T446 -9Q413 -9 390 2Q373 9 361 18T333 36T299 51T250 57Q211 57 178 42T110 -8Q89 0 76 22Q104 49 126 73T164 123T188 177T196 238Q196 266 189 289H152Q113
289 84 288Q84 304 86 313T95 334H173L163 358Q151 386 141 418T130 494Q130 530 142 564T177 626T236 669T316 685Q370 685 403 677T470 650Q467 619 468 588T471 518Q457 511 444 510T417 509Q412 578 385 608T304 638Q266 638 240 608T214 530Q214 494 224 468T248
418T271 368Q278 352 280 334H398Q398 319 396 310T388 289Q355 290 325 290H281Q278 240 258 195T197 97Q206 103 214 108Q231 119 246 125T276 133T307 135Q334 135 356 127T396 109T430 91T460 83Q468 83 478 87T498 100Z" />
<glyph unicode="&#xa4;" glyph-name="currency" horiz-adv-x="540" d="M270 75Q229 75 195 90Q178 98 162 108L113 58Q98 59 90 62T73 76L131 137Q112 160 100 188Q87 221 87 257Q87 296 102 328Q110 346 121 361L67 416Q74 423 83 428T106 435L151 390Q173 408
201 418Q234 431 270 431Q306 431 338 418Q362 408 382 393L427 439Q440 436 448 432T464 418L411 365Q425 348 434 327Q448 295 448 257Q448 210 430 176Q420 157 408 141L474 77Q468 69 459 64T434 57L377 112Q355 95 329 86Q298 75 270 75ZM261 391Q208 391
176 356T143 264Q143 238 153 212T181 165T223 131T276 118Q329 118 361 153T393 249Q393 275 383 300T356 346T314 378T261 391Z" />
<glyph unicode="&#xa5;" glyph-name="yen" horiz-adv-x="630" d="M413 378H535Q535 363 532 353T524 331H386L366 295V253H533Q533 225 521 206H366V163Q366 123 368 100T379 65T402 48T443 40Q449 22 449 -3L383 -1Q350 0 322 0H286Q267 0 248 0T213 -1T186 -2Q186
9 187 20T192 40Q219 42 234 46T258 62T269 94T272 150V206H105Q105 217 108 230T116 253L272 254V294L250 331H114Q114 356 124 378H223L105 578Q95 594 88 605T72 623T55 633T31 637Q27 648 26 657T25 678Q46 677 73 677T129 676H198Q217 676 234 676T263 678Q263
667 262 659T258 639Q219 635 214 619T231 564Q261 512 295 451Q324 399 349 349Q373 396 399 443Q429 499 455 544Q483 593 476 612T428 637Q425 648 423 657T421 678Q439 676 467 676H519Q542 676 565 676T605 678Q605 658 601 639Q587 635 576 629T553 610T528
579T499 531L413 378Z" />
<glyph unicode="&#xa6;" glyph-name="brokenbar" horiz-adv-x="181" d="M62 712Q77 712 89 710T112 701Q112 669 111 621T110 522Q110 500 110 473T111 418T111 367T112 329Q101 329 85 332T62 340V712ZM62 173Q77 173 89 171T112 162Q112 146 112 122T111 71T111
17T110 -33Q110 -52 110 -78T111 -132T111 -189T112 -241Q101 -241 85 -238T62 -230V173Z" />
<glyph unicode="&#xa7;" glyph-name="section" horiz-adv-x="528" d="M383 23Q401 -1 408 -27T416 -84Q416 -116 407 -144T379 -195T329 -229T255 -242Q224 -242 201 -238T161 -226T131 -209T108 -191Q110 -156 110 -123T107 -56Q118 -53 132 -52T158 -50Q162
-96 171 -124T194 -169T225 -190T261 -196Q302 -196 325 -175T348 -115Q348 -94 344 -78T326 -47T286 -15T217 24Q173 46 144 69T96 117T69 173T61 241Q61 271 69 298T94 348T133 387Q151 400 174 409Q172 411 170 412Q142 435 127 459T106 509T101 561Q101 591
112 618T143 667T192 701T257 714Q307 714 338 701T390 672Q388 646 388 615T391 555Q378 551 367 549T340 547Q334 584 326 607T307 644T283 663T255 668Q235 668 219 661T192 642T174 615T168 585Q168 567 171 552T187 523T222 493T283 461Q334 438 368 417T425
371T456 316T466 246Q466 214 456 185T427 131T379 88Q359 76 336 68Q365 46 383 23ZM257 114L278 103Q307 107 328 115Q354 126 369 141T391 176T398 214Q398 234 393 252T371 289T324 327T244 369Q234 373 226 377Q179 368 154 341Q127 311 127 266Q127 245 132
226T152 189T192 152T257 114Z" />
<glyph unicode="&#xa8;" glyph-name="dieresis" horiz-adv-x="540" d="M202 532Q176 532 161 546T145 583Q145 605 158 622T200 640Q230 640 243 624T257 585Q257 562 241 547T202 532ZM395 640Q420 640 436 626T452 589Q452 568 440 551T398 533Q369 533 354
548T339 589Q339 613 354 626T395 640Z" />
<glyph unicode="&#xa9;" glyph-name="copyright" horiz-adv-x="752" d="M78 230Q78 167 101 113T164 18T258 -44T376 -67Q439 -67 493 -44T588 19T651 113T674 230Q674 293 651 347T588 442T494 505T376 528Q313 528 259 505T165 442T101 348T78 230ZM35 230Q35
302 61 364T134 472T242 544T376 571Q447 571 509 545T618 472T690 364T717 230Q717 159 691 97T618 -12T510 -84T376 -111Q304 -111 242 -85T133 -13T61 95T35 230ZM385 453Q431 453 462 443T529 410Q524 383 523 357T522 303Q515 299 502 298T479 296Q477 316
472 336T453 372T420 398T367 408Q338 408 319 395T287 358T270 304T264 239Q264 204 271 172T294 114T334 73T394 57Q423 57 454 67T514 108Q525 98 531 84Q505 46 466 26T368 5Q332 5 297 19T234 61T189 130T172 228Q172 279 187 320T231 391T299 437T385 453Z"
/>
<glyph unicode="&#xaa;" glyph-name="ordfeminine" horiz-adv-x="416" d="M255 537Q234 534 214 530T178 517T153 496T143 461Q143 435 155 425T183 414Q195 414 207 419T230 437T248 468T255 514V537ZM345 488Q345 450 353 438T386 426Q386 415 385 404T380 382Q354
380 329 374T284 359Q274 362 268 370T261 396Q261 407 262 415T265 431Q261 420 254 409T235 386Q221 375 202 368T155 360Q102 360 76 381T50 444Q50 475 66 497T110 534T175 558T255 574Q255 614 252 629T238 656Q221 678 192 678Q176 678 165 670T147 649T137
621T132 591Q119 591 104 592T78 598Q80 618 79 640T74 680Q105 697 141 707T216 717Q252 717 274 709T312 685Q321 676 327 666T337 641T343 607T345 561V488Z" />
<glyph unicode="&#xab;" glyph-name="guillemotleft" horiz-adv-x="504" d="M209 417Q231 414 244 401Q231 385 217 367T188 330T162 294T140 264Q162 225 186 188T237 117Q234 94 217 83Q172 128 133 165T54 240Q54 256 60 274Q102 311 137 345T209 417ZM362
413Q383 411 396 398Q348 330 310 267Q329 229 350 190T392 116Q386 96 369 88Q349 112 332 131T299 169T267 204T233 240Q233 251 235 259T239 273Q274 311 303 344T362 413Z" />
<glyph unicode="&#xac;" glyph-name="logicalnot" horiz-adv-x="537" d="M439 297H256Q147 298 26 296Q26 307 28 323T36 347H491V116Q468 102 439 102V297Z" />
<glyph unicode="&#xad;" glyph-name="uni00AD" horiz-adv-x="419" d="M359 299Q359 283 356 266T346 234Q319 234 281 234T202 233T125 232T60 230Q60 247 64 266T76 299H359Z" />
<glyph unicode="&#xae;" glyph-name="registered" horiz-adv-x="495" d="M60 497Q60 536 74 570T114 630T174 670T247 685Q287 685 321 671T381 631T420 571T435 497Q435 457 421 423T381 364T322 325T247 310Q208 310 174 324T115 364T75 423T60 497ZM93 497Q93
464 105 436T137 388T186 355T247 343Q281 343 309 355T358 387T390 436T402 497Q402 530 391 558T359 607T310 640T247 652Q214 652 186 640T138 608T105 559T93 497ZM282 494Q278 492 274 491Q284 479 290 471Q297 462 308 446Q322 426 329 421T351 415V405Q351
401 349 397Q338 397 324 397T300 394Q285 421 271 442T238 485Q235 486 230 486V450Q230 430 234 423T250 414Q252 409 252 405T253 396Q242 397 230 397H192Q183 397 166 396V404Q166 409 168 414Q183 416 187 422T192 450V550Q192 573 188 579T166 585Q164 589
164 593V602H257Q296 602 313 588T330 550Q330 536 323 525T305 506T282 494ZM237 585Q235 585 230 583V502Q261 503 276 510T292 540Q292 559 282 572T244 585H237Z" />
<glyph unicode="&#xaf;" glyph-name="macron" horiz-adv-x="540" d="M451 631Q451 610 442 588H397Q364 588 317 588T210 587T87 585Q87 591 89 606T96 631H451Z" />
<glyph unicode="0;" glyph-name="degree" horiz-adv-x="384" d="M190 700Q255 700 289 666T324 579Q324 553 315 530T288 490T245 464T190 454Q128 454 94 489T60 578Q60 604 69 626T96 664T137 690T190 700ZM184 662Q161 662 146 643T130 597Q130 550 152
522T204 494Q225 494 239 512T254 568Q254 612 235 637T184 662Z" />
<glyph unicode="1;" glyph-name="plusminus" horiz-adv-x="540" d="M299 362H469Q469 347 468 336T459 314Q433 314 414 314T376 315T334 314H299V173Q292 168 276 166T249 163Q249 193 249 215T250 257T251 295V314H198Q151 314 84 313Q84 324 86 339T94
362H251V407Q251 427 251 452T250 512Q261 519 272 520T299 522V362ZM501 130Q501 115 500 104T491 82Q449 82 423 82T376 83H216Q187 83 159 83T100 82T36 81Q36 92 38 107T46 130H501Z" />
<glyph unicode="2;" glyph-name="twosuperior" horiz-adv-x="370" d="M189 717Q207 717 226 713T260 697T286 669T296 626Q296 587 281 561T233 506Q215 489 193 470T145 428H225Q249 428 263 440T280 484Q291 484 300 483T317 480Q317 454 318 430T325 378Q321
370 314 364T293 358Q270 358 236 359T165 360Q128 360 97 359T49 358Q44 366 42 374T40 391Q72 422 101 447T148 489Q183 521 199 548T215 612Q215 640 200 657T164 674Q139 674 129 652T111 575Q100 575 86 576T62 581Q64 605 64 633T61 684Q92 702 120 709T189
717Z" />
<glyph unicode="3;" glyph-name="threesuperior" horiz-adv-x="369" d="M256 715Q284 715 298 716Q303 707 304 700T306 681Q281 654 250 616T187 536Q213 538 237 531T281 506T312 464T324 405Q324 372 311 343T274 293T215 258T137 245Q92 245 68 257T35
277Q40 287 45 293T58 304Q65 298 83 292T131 285Q149 285 168 292T203 313T229 347T239 395Q239 433 217 459T150 486Q142 486 138 486T128 483Q122 488 118 493T111 509Q153 562 179 595T226 655H164Q147 655 137 653T119 644T105 625T91 595Q82 595 72 597T54
604Q58 635 59 663T61 716Q78 715 108 715H256Z" />
<glyph unicode="4;" glyph-name="acute" horiz-adv-x="540" d="M224 537Q248 587 263 629T289 709Q311 717 329 719T363 721Q372 720 379 718T392 714Q359 676 324 627T260 531Q251 530 242 531T224 537Z" />
<glyph unicode="5;" glyph-name="mu" horiz-adv-x="563" d="M422 -9Q413 -6 405 4T397 40Q397 60 399 80V89Q389 67 369 47Q318 -4 248 -4Q213 -4 185 5L169 11V-40Q169 -85 172 -114T183 -167Q171 -176 162 -184T146 -200T130 -219T112 -242Q104 -239 99
-233T92 -220Q94 -198 97 -170T101 -85V325Q101 343 100 356T91 377T71 390T35 396Q35 407 36 415T42 433Q57 434 74 437T109 445T141 455T169 467Q178 464 184 455T191 423V196Q191 120 211 89T281 57Q301 57 321 67T356 98T381 151T391 228V330Q391 348 389 361T378
382T356 395T316 401Q316 412 317 420T323 438Q362 440 399 448T459 467Q468 464 474 455T481 423V133Q481 117 483 105Q485 92 492 84T512 71T548 65Q548 54 547 44T542 22Q531 22 514 20T480 13T447 3T422 -9Z" />
<glyph unicode="6;" glyph-name="paragraph" horiz-adv-x="540" d="M277 317Q267 316 254 316Q203 316 163 325T95 354T51 409T36 493Q36 532 50 566T94 625T172 664T287 678Q334 678 368 677T439 676H478Q500 676 521 678Q521 667 520 657T515 636Q493 635
480 630T459 615T450 588T448 550V-249Q422 -249 398 -239V636Q374 639 355 640H337V-249Q323 -249 311 -248T287 -240V318Q282 317 277 317ZM220 634Q187 627 166 611T136 566T127 496Q127 459 138 433T169 389T214 363T268 355H287V641Q248 640 220 634Z" />
<glyph unicode="7;" glyph-name="periodcentered" horiz-adv-x="234" d="M114 330Q138 330 156 315T174 277Q174 258 162 239T118 220Q89 220 75 234T60 272Q60 299 76 314T114 330Z" />
<glyph unicode="8;" glyph-name="cedilla" horiz-adv-x="540" d="M324 16L276 -50Q316 -57 339 -81T363 -141Q363 -166 351 -185T319 -216T277 -235T235 -242Q231 -235 230 -227T228 -210Q258 -210 282 -196T307 -155Q307 -130 289 -116T242 -101Q234 -95
229 -86T224 -63L274 16H324Z" />
<glyph unicode="9;" glyph-name="onesuperior" horiz-adv-x="306" d="M194 459Q194 427 206 413T249 398Q253 379 253 357Q230 359 204 359T154 360Q131 360 104 360T53 357Q53 368 54 378T57 398Q87 398 99 412T112 459V612Q112 642 100 657T57 672Q53 689
53 714Q61 713 74 713T101 712T130 711H154Q173 711 203 711T253 714Q253 689 249 672Q219 672 207 657T194 612V459Z" />
<glyph unicode="a;" glyph-name="ordmasculine" horiz-adv-x="418" d="M132 554Q132 481 154 440T217 398Q252 398 270 433T289 525Q289 597 264 637T202 677Q167 677 150 643T132 554ZM40 535Q40 576 53 609T88 667T142 704T210 717Q293 717 336 668T379
539Q379 498 367 465T333 407T279 370T208 357Q129 357 85 405T40 535Z" />
<glyph unicode="b;" glyph-name="guillemotright" horiz-adv-x="520" d="M269 87Q253 97 246 116Q271 148 294 180T340 249L317 283Q304 303 290 324T260 365T232 404Q249 418 269 418Q305 383 342 351T419 285Q423 277 424 270T425 253Q384 212 346 171T269
87ZM114 91Q105 96 99 103T87 119Q107 150 126 182T165 249Q157 264 146 283T123 322T99 362T75 400Q91 414 114 414Q144 380 175 348T240 284Q245 271 245 253Q211 213 179 173T114 91Z" />
<glyph unicode="c;" glyph-name="onequarter" horiz-adv-x="778" d="M102 583Q102 624 87 638T26 653Q26 662 27 674T34 696Q71 701 105 709T166 729Q177 725 181 717T186 685V426Q186 394 189 374T200 342T219 326T246 320Q248 312 249 301T250 278Q239 279
208 280T141 281Q103 281 76 280T32 278Q32 304 36 320Q52 321 64 325T85 339T98 369T102 419V583ZM163 -8Q149 -3 139 4T123 18L635 714Q646 711 657 704T675 688L163 -8ZM667 191H714Q737 191 746 181Q739 167 735 153T728 119H667V111Q667 88 669 75T678 54T693
45T717 42Q719 36 720 22T722 -3Q713 -3 701 -3T674 -1L646 0H593L563 -1Q548 -2 536 -2T516 -3Q516 8 517 22T520 42Q537 43 549 45T570 55T581 76T585 111V118Q553 117 527 117Q490 116 463 115T413 111Q395 131 395 160Q420 191 448 227T506 301T564 379T619
457Q645 457 667 446V191ZM585 191V338L477 191H585Z" />
<glyph unicode="d;" glyph-name="onehalf" horiz-adv-x="877" d="M102 583Q102 624 87 638T26 653Q26 662 27 674T34 696Q71 701 105 709T166 729Q177 725 181 717T186 685V426Q186 394 189 374T200 342T219 326T246 320Q248 312 249 301T250 278Q239 279
208 280T141 281Q103 281 76 280T32 278Q32 304 36 320Q52 321 64 325T85 339T98 369T102 419V583ZM153 -8Q139 -3 129 4T113 18L625 714Q636 711 647 704T665 688L153 -8ZM663 449Q692 449 717 443T762 424T793 391T805 343Q805 301 782 267T721 198Q689 168 663
141T605 78H728Q752 78 766 87T781 124Q793 125 804 124T825 119Q824 91 825 64T832 15Q827 6 816 3T782 -1Q771 -1 743 -1T689 0Q644 0 603 0T517 -1Q512 4 510 12T508 28Q523 45 542 66T575 102L666 196Q693 225 705 255T718 327Q718 362 701 386T645 411Q610
411 595 389T573 320Q544 320 524 327Q527 347 527 368T523 417Q584 449 663 449Z" />
<glyph unicode="e;" glyph-name="threequarters" horiz-adv-x="829" d="M194 724Q242 724 272 725T316 726Q329 711 329 690Q300 660 269 626T202 553Q228 553 254 546T301 524T335 486T348 430Q348 394 334 365T294 315T232 284T153 273Q105 273 77 285T37
307Q36 317 40 327T51 346Q63 338 86 330T145 322Q192 322 222 343T253 409Q253 427 246 441T225 464T196 479T163 484Q154 484 146 483T130 479Q123 485 118 496T111 515Q143 551 176 588T234 654H159Q134 654 120 641T91 590Q80 590 68 593T48 602Q54 628 56
664T57 726Q77 725 112 725T194 724ZM193 -8Q179 -3 169 4T153 18L665 714Q676 711 687 704T705 688L193 -8ZM715 191H762Q785 191 794 181Q787 167 783 153T776 119H715V111Q715 88 717 75T726 54T741 45T765 42Q767 36 768 22T770 -3Q761 -3 749 -3T722 -1L694
0H641L611 -1Q596 -2 584 -2T564 -3Q564 8 565 22T568 42Q585 43 597 45T618 55T629 76T633 111V118Q601 117 575 117Q538 116 511 115T461 111Q443 131 443 160Q468 191 496 227T554 301T612 379T667 457Q693 457 715 446V191ZM633 191V338L525 191H633Z" />
<glyph unicode="f;" glyph-name="questiondown" horiz-adv-x="537" d="M251 -242Q180 -242 135 -210T90 -116Q90 -68 112 -33T162 35T212 106T235 194Q235 206 232 226T224 261Q233 266 241 267T260 269Q277 258 291 225T306 149Q306 100 286 68T243 9T199
-44T179 -107Q179 -128 185 -145T203 -175T229 -195T260 -202Q298 -202 319 -173T348 -75Q362 -75 378 -77T405 -85Q402 -120 402 -144T405 -200Q380 -215 344 -228T251 -242ZM251 352Q224 352 209 370T193 406Q193 438 212 452T255 467Q284 467 299 452T315 412Q315
387 298 370T251 352Z" />
<glyph unicode="0;" glyph-name="Agrave" horiz-adv-x="704" d="M319 678Q336 682 358 682L596 136Q608 108 617 90T635 62T652 47T673 40Q677 27 678 18T679 -3Q671 -3 657 -3T626 -1L593 0H565Q553 0 537 0T504 -1T474 -2T452 -3Q452 9 453 20T459 40Q480
42 491 46T507 58T508 81T495 118L451 220Q386 220 314 219Q245 218 186 216L160 147Q137 88 146 66T196 40Q203 23 203 -3Q186 -1 160 -1T108 0Q83 0 61 -1T25 -3Q25 7 26 18T32 39Q45 42 55 48T74 66T91 97T112 147L319 678ZM205 265H432L356 443Q349 458 344
471T333 497T321 525Q317 537 311 551Q301 518 292 494Q283 468 274 444L205 265ZM370 752Q361 747 351 747T330 750Q295 804 265 844T203 919Q223 929 248 930T299 927Q312 884 329 841T370 752Z" />
<glyph unicode="1;" glyph-name="Aacute" horiz-adv-x="704" d="M319 678Q336 682 358 682L596 136Q608 108 617 90T635 62T652 47T673 40Q677 27 678 18T679 -3Q671 -3 657 -3T626 -1L593 0H565Q553 0 537 0T504 -1T474 -2T452 -3Q452 9 453 20T459 40Q480
42 491 46T507 58T508 81T495 118L451 220Q386 220 314 219Q245 218 186 216L160 147Q137 88 146 66T196 40Q203 23 203 -3Q186 -1 160 -1T108 0Q83 0 61 -1T25 -3Q25 7 26 18T32 39Q45 42 55 48T74 66T91 97T112 147L319 678ZM205 265H432L356 443Q349 458 344
471T333 497T321 525Q317 537 311 551Q301 518 292 494Q283 468 274 444L205 265ZM298 752Q322 802 337 844T363 924Q385 932 403 934T437 936Q446 935 453 933T466 929Q433 891 398 842T334 746Q325 745 316 746T298 752Z" />
<glyph unicode="2;" glyph-name="Acircumflex" horiz-adv-x="704" d="M319 678Q336 682 358 682L596 136Q608 108 617 90T635 62T652 47T673 40Q677 27 678 18T679 -3Q671 -3 657 -3T626 -1L593 0H565Q553 0 537 0T504 -1T474 -2T452 -3Q452 9 453 20T459
40Q480 42 491 46T507 58T508 81T495 118L451 220Q386 220 314 219Q245 218 186 216L160 147Q137 88 146 66T196 40Q203 23 203 -3Q186 -1 160 -1T108 0Q83 0 61 -1T25 -3Q25 7 26 18T32 39Q45 42 55 48T74 66T91 97T112 147L319 678ZM205 265H432L356 443Q349
458 344 471T333 497T321 525Q317 537 311 551Q301 518 292 494Q283 468 274 444L205 265ZM170 770Q208 799 250 839T327 920Q335 922 344 923T359 924Q386 887 423 844T505 756Q495 743 475 738Q459 749 441 762L405 788Q387 801 369 812T335 833Q323 827 303
814T259 786T215 756T181 732Q174 739 172 751T170 770Z" />
<glyph unicode="3;" glyph-name="Atilde" horiz-adv-x="704" d="M319 678Q336 682 358 682L596 136Q608 108 617 90T635 62T652 47T673 40Q677 27 678 18T679 -3Q671 -3 657 -3T626 -1L593 0H565Q553 0 537 0T504 -1T474 -2T452 -3Q452 9 453 20T459 40Q480
42 491 46T507 58T508 81T495 118L451 220Q386 220 314 219Q245 218 186 216L160 147Q137 88 146 66T196 40Q203 23 203 -3Q186 -1 160 -1T108 0Q83 0 61 -1T25 -3Q25 7 26 18T32 39Q45 42 55 48T74 66T91 97T112 147L319 678ZM205 265H432L356 443Q349 458 344
471T333 497T321 525Q317 537 311 551Q301 518 292 494Q283 468 274 444L205 265ZM201 732Q191 738 191 751Q221 804 248 823T300 842Q318 842 334 836T367 822T400 808T433 801Q448 801 463 808T494 832Q498 832 503 831T513 824Q487 768 463 748T416 728Q399
728 383 734T349 749T315 764T278 771Q260 771 241 763T201 732Z" />
<glyph unicode="4;" glyph-name="Adieresis" horiz-adv-x="704" d="M319 678Q336 682 358 682L596 136Q608 108 617 90T635 62T652 47T673 40Q677 27 678 18T679 -3Q671 -3 657 -3T626 -1L593 0H565Q553 0 537 0T504 -1T474 -2T452 -3Q452 9 453 20T459 40Q480
42 491 46T507 58T508 81T495 118L451 220Q386 220 314 219Q245 218 186 216L160 147Q137 88 146 66T196 40Q203 23 203 -3Q186 -1 160 -1T108 0Q83 0 61 -1T25 -3Q25 7 26 18T32 39Q45 42 55 48T74 66T91 97T112 147L319 678ZM205 265H432L356 443Q349 458 344
471T333 497T321 525Q317 537 311 551Q301 518 292 494Q283 468 274 444L205 265ZM246 747Q220 747 205 761T189 798Q189 820 202 837T244 855Q274 855 287 839T301 800Q301 777 285 762T246 747ZM439 855Q464 855 480 841T496 804Q496 783 484 766T442 748Q413
748 398 763T383 804Q383 828 398 841T439 855Z" />
<glyph unicode="5;" glyph-name="Aring" horiz-adv-x="704" d="M319 678Q336 682 358 682L596 136Q608 108 617 90T635 62T652 47T673 40Q677 27 678 18T679 -3Q671 -3 657 -3T626 -1L593 0H565Q553 0 537 0T504 -1T474 -2T452 -3Q452 9 453 20T459 40Q480
42 491 46T507 58T508 81T495 118L451 220Q386 220 314 219Q245 218 186 216L160 147Q137 88 146 66T196 40Q203 23 203 -3Q186 -1 160 -1T108 0Q83 0 61 -1T25 -3Q25 7 26 18T32 39Q45 42 55 48T74 66T91 97T112 147L319 678ZM205 265H432L356 443Q349 458 344
471T333 497T321 525Q317 537 311 551Q301 518 292 494Q283 468 274 444L205 265ZM235 829Q235 869 265 896T339 923Q357 923 375 918T406 902T428 875T437 836Q437 795 407 768T332 741Q313 741 296 747T265 764T243 792T235 829ZM290 833Q290 810 303 794T342
778Q358 778 370 790T383 826Q383 847 371 868T332 889Q313 889 302 874T290 833Z" />
<glyph unicode="6;" glyph-name="AE" horiz-adv-x="956" d="M733 0H533Q476 -1 427 -2Q427 9 428 20T434 40Q453 43 465 47T485 62T495 91T498 138V298Q457 298 425 297Q385 296 355 295Q333 294 313 293Q294 259 277 228Q251 182 236 155Q218 122 212 101T209
67T223 48T253 38Q260 21 260 -3Q237 -1 209 -1T155 0Q130 0 104 0T62 -3Q62 7 63 18T69 39Q81 40 92 45T115 62T142 95T177 152L411 556Q434 595 425 612T367 635Q363 644 362 655T361 678Q380 678 402 678T447 677T488 676H728Q806 677 852 678Q853 661 855 641T860
599T866 558T873 521Q865 514 854 512T828 509Q826 532 819 555T793 596T743 625T664 636H592V341H643Q703 341 723 362T744 421Q759 425 769 426T793 428Q793 420 793 407T792 379T791 346V287Q791 271 791 255T792 225T793 203Q779 203 769 203T747 208Q745 227
741 243T725 272T692 291T635 298H592V138Q592 106 597 88T611 60T633 47Q641 46 650 45H688Q735 45 764 53T811 77T841 116T863 171Q878 166 888 161T907 147Q896 112 889 73T876 -2Q845 -2 808 -2T733 0ZM498 571Q498 585 499 600Q500 613 501 628L493 610Q487
597 479 583T459 546Q431 498 398 441Q369 390 341 341H498V571Z" />
<glyph unicode="7;" glyph-name="Ccedilla" horiz-adv-x="653" d="M369 685Q432 685 483 672T591 633Q583 598 582 559T580 478Q567 473 555 471T527 469Q525 522 514 556T484 609T437 636T377 644Q314 644 269 621T196 560T154 472T140 370Q140 303 157 245T207
144T287 77T395 52Q443 52 493 68T585 111Q591 106 596 97T603 80Q573 57 545 41T486 13T423 -3Q395 -8 362 -9L332 -50Q372 -57 395 -81T419 -141Q419 -166 407 -185T375 -216T333 -235T291 -242Q287 -235 286 -227T284 -210Q314 -210 338 -196T363 -155Q363 -130
345 -116T298 -101Q290 -95 285 -86T280 -63L315 -7Q267 -2 224 16Q166 42 124 88T59 200T35 343Q35 429 63 493T138 600T245 664T369 685Z" />
<glyph unicode="8;" glyph-name="Egrave" horiz-adv-x="584" d="M307 752Q298 747 288 747T267 750Q232 804 202 844T140 919Q160 929 185 930T236 927Q249 884 266 841T307 752ZM486 679Q487 662 489 642T494 600T500 558T507 521Q499 514 488 512T462 509Q460
532 453 555T427 596T377 625T298 636H226V362H268Q299 362 320 365T354 378T373 403T379 443Q392 447 402 448T427 450Q425 424 425 395V283Q425 251 427 225Q413 225 403 226T381 230Q379 256 373 273T353 300T320 315T268 319H226V138Q226 110 229 92T243 64T270
49T316 45H322Q368 45 397 53T444 77T474 116T497 171Q512 166 522 161T541 147Q530 112 523 73T510 -2Q495 -2 474 -2T426 -1T372 0H251Q214 0 178 0T109 -1T57 -3Q57 26 62 40Q82 41 95 45T117 61T128 90T132 138V549Q132 599 118 616T63 636Q60 644 59 655T58
679Q73 678 96 678T143 677T190 676H226Q329 676 395 677T486 679Z" />
<glyph unicode="9;" glyph-name="Eacute" horiz-adv-x="584" d="M275 752Q299 802 314 844T340 924Q362 932 380 934T414 936Q423 935 430 933T443 929Q410 891 375 842T311 746Q302 745 293 746T275 752ZM486 679Q487 662 489 642T494 600T500 558T507 521Q499
514 488 512T462 509Q460 532 453 555T427 596T377 625T298 636H226V362H268Q299 362 320 365T354 378T373 403T379 443Q392 447 402 448T427 450Q425 424 425 395V283Q425 251 427 225Q413 225 403 226T381 230Q379 256 373 273T353 300T320 315T268 319H226V138Q226
110 229 92T243 64T270 49T316 45H322Q368 45 397 53T444 77T474 116T497 171Q512 166 522 161T541 147Q530 112 523 73T510 -2Q495 -2 474 -2T426 -1T372 0H251Q214 0 178 0T109 -1T57 -3Q57 26 62 40Q82 41 95 45T117 61T128 90T132 138V549Q132 599 118 616T63
636Q60 644 59 655T58 679Q73 678 96 678T143 677T190 676H226Q329 676 395 677T486 679Z" />
<glyph unicode="a;" glyph-name="Ecircumflex" horiz-adv-x="584" d="M124 770Q162 799 204 839T281 920Q289 922 298 923T313 924Q340 887 377 844T459 756Q449 743 429 738Q413 749 395 762L359 788Q341 801 323 812T289 833Q277 827 257 814T213 786T169
756T135 732Q128 739 126 751T124 770ZM486 679Q487 662 489 642T494 600T500 558T507 521Q499 514 488 512T462 509Q460 532 453 555T427 596T377 625T298 636H226V362H268Q299 362 320 365T354 378T373 403T379 443Q392 447 402 448T427 450Q425 424 425 395V283Q425
251 427 225Q413 225 403 226T381 230Q379 256 373 273T353 300T320 315T268 319H226V138Q226 110 229 92T243 64T270 49T316 45H322Q368 45 397 53T444 77T474 116T497 171Q512 166 522 161T541 147Q530 112 523 73T510 -2Q495 -2 474 -2T426 -1T372 0H251Q214
0 178 0T109 -1T57 -3Q57 26 62 40Q82 41 95 45T117 61T128 90T132 138V549Q132 599 118 616T63 636Q60 644 59 655T58 679Q73 678 96 678T143 677T190 676H226Q329 676 395 677T486 679Z" />
<glyph unicode="b;" glyph-name="Edieresis" horiz-adv-x="584" d="M184 747Q158 747 143 761T127 798Q127 820 140 837T182 855Q212 855 225 839T239 800Q239 777 223 762T184 747ZM377 855Q402 855 418 841T434 804Q434 783 422 766T380 748Q351 748 336
763T321 804Q321 828 336 841T377 855ZM486 679Q487 662 489 642T494 600T500 558T507 521Q499 514 488 512T462 509Q460 532 453 555T427 596T377 625T298 636H226V362H268Q299 362 320 365T354 378T373 403T379 443Q392 447 402 448T427 450Q425 424 425 395V283Q425
251 427 225Q413 225 403 226T381 230Q379 256 373 273T353 300T320 315T268 319H226V138Q226 110 229 92T243 64T270 49T316 45H322Q368 45 397 53T444 77T474 116T497 171Q512 166 522 161T541 147Q530 112 523 73T510 -2Q495 -2 474 -2T426 -1T372 0H251Q214
0 178 0T109 -1T57 -3Q57 26 62 40Q82 41 95 45T117 61T128 90T132 138V549Q132 599 118 616T63 636Q60 644 59 655T58 679Q73 678 96 678T143 677T190 676H226Q329 676 395 677T486 679Z" />
<glyph unicode="c;" glyph-name="Igrave" horiz-adv-x="376" d="M152 549Q152 599 138 616T83 636Q78 650 78 679Q133 676 199 676Q231 676 260 676T320 679Q320 650 315 636Q275 634 261 617T246 549V127Q246 77 260 60T315 40Q320 26 320 -3Q260 0 199 0Q170
0 137 0T78 -3Q78 26 83 40Q123 42 137 59T152 127V549ZM224 752Q215 747 205 747T184 750Q149 804 119 844T57 919Q77 929 102 930T153 927Q166 884 183 841T224 752Z" />
<glyph unicode="d;" glyph-name="Iacute" horiz-adv-x="380" d="M131 549Q131 599 117 616T62 636Q57 650 57 679Q112 676 178 676Q210 676 239 676T299 679Q299 650 294 636Q254 634 240 617T225 549V127Q225 77 239 60T294 40Q299 26 299 -3Q239 0 178 0Q149
0 116 0T57 -3Q57 26 62 40Q102 42 116 59T131 127V549ZM157 752Q181 802 196 844T222 924Q244 932 262 934T296 936Q305 935 312 933T325 929Q292 891 257 842T193 746Q184 745 175 746T157 752Z" />
<glyph unicode="e;" glyph-name="Icircumflex" horiz-adv-x="448" d="M168 549Q168 599 154 616T99 636Q94 650 94 679Q149 676 215 676Q247 676 276 676T336 679Q336 650 331 636Q291 634 277 617T262 549V127Q262 77 276 60T331 40Q336 26 336 -3Q276 0
215 0Q186 0 153 0T94 -3Q94 26 99 40Q139 42 153 59T168 127V549ZM53 770Q91 799 133 839T210 920Q218 922 227 923T242 924Q269 887 306 844T388 756Q378 743 358 738Q342 749 324 762L288 788Q270 801 252 812T218 833Q206 827 186 814T142 786T98 756T64 732Q57
739 55 751T53 770Z" />
<glyph unicode="f;" glyph-name="Idieresis" horiz-adv-x="420" d="M166 549Q166 599 152 616T97 636Q92 650 92 679Q147 676 213 676Q245 676 274 676T334 679Q334 650 329 636Q289 634 275 617T260 549V127Q260 77 274 60T329 40Q334 26 334 -3Q274 0 213
0Q184 0 151 0T92 -3Q92 26 97 40Q137 42 151 59T166 127V549ZM115 747Q89 747 74 761T58 798Q58 820 71 837T113 855Q143 855 156 839T170 800Q170 777 154 762T115 747ZM308 855Q333 855 349 841T365 804Q365 783 353 766T311 748Q282 748 267 763T252 804Q252
828 267 841T308 855Z" />
<glyph unicode="&#xd0;" glyph-name="Eth" horiz-adv-x="727" d="M54 679Q64 678 79 678T112 677T147 676H181Q214 676 247 677T312 678Q378 678 446 666T568 620T657 522T692 355Q692 274 672 216T619 119T545 56T461 20T380 4T312 0H247Q210 0 174 0T105 -1T53
-3Q53 26 58 40Q78 41 91 45T113 61T124 90T128 138V248H92Q70 248 35 246Q35 257 38 273T46 297H128V549Q128 599 114 616T59 636Q56 644 55 655T54 679ZM222 138Q222 110 225 92T239 64T266 49T312 45Q372 45 422 59T510 108T568 198T589 340Q589 421 565 478T499
571T405 623T296 640Q278 640 257 638T222 631V297H401Q401 282 399 270T390 247Q364 247 343 247T300 248H222V138Z" />
<glyph unicode="&#xd1;" glyph-name="Ntilde" horiz-adv-x="758" d="M513 679Q535 677 560 677T607 676Q628 676 655 676T702 679Q702 669 701 658T697 636Q680 636 669 629T651 606T641 562T638 494V-4Q630 -7 619 -8T597 -9L182 533V187Q182 145 185 117T196
71T217 47T251 40Q254 31 255 21T256 -3Q233 -1 206 -1T157 0Q135 0 106 0T57 -3Q57 10 58 20T62 40Q82 40 95 47T117 71T128 116T131 187V600L127 605Q113 623 100 628T62 636Q59 647 58 659T57 679Q72 677 92 677T131 676Q171 676 198 679L587 163V494Q587 535
584 562T573 605T552 629T518 636Q515 653 514 661T513 679ZM236 732Q226 738 226 751Q256 804 283 823T335 842Q353 842 369 836T402 822T435 808T468 801Q483 801 498 808T529 832Q533 832 538 831T548 824Q522 768 498 748T451 728Q434 728 418 734T384 749T350
764T313 771Q295 771 276 763T236 732Z" />
<glyph unicode="&#xd2;" glyph-name="Ograve" horiz-adv-x="731" d="M35 340Q35 416 60 479T130 589T235 660T365 685Q437 685 497 660T602 590T671 481T696 340Q696 266 672 203T603 92T499 18T365 -9Q291 -9 230 17T126 91T59 201T35 340ZM138 367Q138 304 154
245T201 141T279 68T385 40Q434 40 472 61T538 120T579 207T593 314Q593 381 574 440T522 543T444 612T344 637Q300 637 262 618T197 563T154 478T138 367ZM393 752Q384 747 374 747T353 750Q318 804 288 844T226 919Q246 929 271 930T322 927Q335 884 352 841T393
752Z" />
<glyph unicode="&#xd3;" glyph-name="Oacute" horiz-adv-x="731" d="M35 340Q35 416 60 479T130 589T235 660T365 685Q437 685 497 660T602 590T671 481T696 340Q696 266 672 203T603 92T499 18T365 -9Q291 -9 230 17T126 91T59 201T35 340ZM138 367Q138 304 154
245T201 141T279 68T385 40Q434 40 472 61T538 120T579 207T593 314Q593 381 574 440T522 543T444 612T344 637Q300 637 262 618T197 563T154 478T138 367ZM340 752Q364 802 379 844T405 924Q427 932 445 934T479 936Q488 935 495 933T508 929Q475 891 440 842T376
746Q367 745 358 746T340 752Z" />
<glyph unicode="&#xd4;" glyph-name="Ocircumflex" horiz-adv-x="731" d="M35 340Q35 416 60 479T130 589T235 660T365 685Q437 685 497 660T602 590T671 481T696 340Q696 266 672 203T603 92T499 18T365 -9Q291 -9 230 17T126 91T59 201T35 340ZM138 367Q138
304 154 245T201 141T279 68T385 40Q434 40 472 61T538 120T579 207T593 314Q593 381 574 440T522 543T444 612T344 637Q300 637 262 618T197 563T154 478T138 367ZM200 770Q238 799 280 839T357 920Q365 922 374 923T389 924Q416 887 453 844T535 756Q525 743
505 738Q489 749 471 762L435 788Q417 801 399 812T365 833Q353 827 333 814T289 786T245 756T211 732Q204 739 202 751T200 770Z" />
<glyph unicode="&#xd5;" glyph-name="Otilde" horiz-adv-x="731" d="M35 340Q35 416 60 479T130 589T235 660T365 685Q437 685 497 660T602 590T671 481T696 340Q696 266 672 203T603 92T499 18T365 -9Q291 -9 230 17T126 91T59 201T35 340ZM138 367Q138 304 154
245T201 141T279 68T385 40Q434 40 472 61T538 120T579 207T593 314Q593 381 574 440T522 543T444 612T344 637Q300 637 262 618T197 563T154 478T138 367ZM221 732Q211 738 211 751Q241 804 268 823T320 842Q338 842 354 836T387 822T420 808T453 801Q468 801
483 808T514 832Q518 832 523 831T533 824Q507 768 483 748T436 728Q419 728 403 734T369 749T335 764T298 771Q280 771 261 763T221 732Z" />
<glyph unicode="&#xd6;" glyph-name="Odieresis" horiz-adv-x="731" d="M35 340Q35 416 60 479T130 589T235 660T365 685Q437 685 497 660T602 590T671 481T696 340Q696 266 672 203T603 92T499 18T365 -9Q291 -9 230 17T126 91T59 201T35 340ZM138 367Q138 304
154 245T201 141T279 68T385 40Q434 40 472 61T538 120T579 207T593 314Q593 381 574 440T522 543T444 612T344 637Q300 637 262 618T197 563T154 478T138 367ZM269 747Q243 747 228 761T212 798Q212 820 225 837T267 855Q297 855 310 839T324 800Q324 777 308
762T269 747ZM462 855Q487 855 503 841T519 804Q519 783 507 766T465 748Q436 748 421 763T406 804Q406 828 421 841T462 855Z" />
<glyph unicode="&#xd7;" glyph-name="multiply" horiz-adv-x="619" d="M116 -9Q100 -9 85 -5T61 10L269 231Q156 337 40 446Q49 457 62 463T92 470L305 269L506 482Q522 478 532 472T553 455Q513 414 458 356T342 234L577 15Q559 -9 522 -9Q415 94 307 196Q264
151 222 106Q163 43 116 -9Z" />
<glyph unicode="&#xd8;" glyph-name="Oslash" horiz-adv-x="731" d="M35 340Q35 416 60 479T130 589T235 660T365 685Q437 685 497 660Q527 648 552 631L604 701Q619 701 632 698T655 685L591 600L602 589Q646 544 671 481T696 340Q696 266 672 203T603 92T499
18T365 -9Q291 -9 230 17Q194 33 164 55L98 -29Q84 -29 72 -23T54 -7L129 87L125 91Q82 138 59 201T35 340ZM279 67Q325 40 385 40Q434 40 472 61T538 120T579 207T593 314Q593 381 574 440Q558 490 532 529L218 119Q244 88 279 67ZM138 367Q138 304 154 245Q167
198 189 159L501 567Q475 594 443 612Q398 637 344 637Q300 637 262 618T197 563T154 478T138 367Z" />
<glyph unicode="&#xd9;" glyph-name="Ugrave" horiz-adv-x="705" d="M585 269Q585 226 583 193T574 133T556 86T528 48Q499 19 458 5T366 -9Q296 -9 249 6T174 52T133 128T121 231V549Q121 576 119 592T110 617T92 630T62 636Q59 647 58 658T57 679Q77 677 109
677T173 676Q204 676 235 676T289 679Q289 669 288 658T284 636Q262 634 249 631T228 618T218 593T215 549V245Q215 203 223 166T250 102T302 60T385 44Q410 44 440 52T491 82Q503 94 511 108T524 143T531 192T534 261V509Q534 545 532 568T522 606T501 627T465
636Q462 651 461 659T460 679Q477 677 504 677T554 676Q577 676 603 676T649 679Q649 672 648 663T644 636Q627 634 616 628T597 607T588 569T585 509V269ZM395 752Q386 747 376 747T355 750Q320 804 290 844T228 919Q248 929 273 930T324 927Q337 884 354 841T395
752Z" />
<glyph unicode="&#xda;" glyph-name="Uacute" horiz-adv-x="705" d="M585 269Q585 226 583 193T574 133T556 86T528 48Q499 19 458 5T366 -9Q296 -9 249 6T174 52T133 128T121 231V549Q121 576 119 592T110 617T92 630T62 636Q59 647 58 658T57 679Q77 677 109
677T173 676Q204 676 235 676T289 679Q289 669 288 658T284 636Q262 634 249 631T228 618T218 593T215 549V245Q215 203 223 166T250 102T302 60T385 44Q410 44 440 52T491 82Q503 94 511 108T524 143T531 192T534 261V509Q534 545 532 568T522 606T501 627T465
636Q462 651 461 659T460 679Q477 677 504 677T554 676Q577 676 603 676T649 679Q649 672 648 663T644 636Q627 634 616 628T597 607T588 569T585 509V269ZM368 752Q392 802 407 844T433 924Q455 932 473 934T507 936Q516 935 523 933T536 929Q503 891 468 842T404
746Q395 745 386 746T368 752Z" />
<glyph unicode="&#xdb;" glyph-name="Ucircumflex" horiz-adv-x="705" d="M585 269Q585 226 583 193T574 133T556 86T528 48Q499 19 458 5T366 -9Q296 -9 249 6T174 52T133 128T121 231V549Q121 576 119 592T110 617T92 630T62 636Q59 647 58 658T57 679Q77 677
109 677T173 676Q204 676 235 676T289 679Q289 669 288 658T284 636Q262 634 249 631T228 618T218 593T215 549V245Q215 203 223 166T250 102T302 60T385 44Q410 44 440 52T491 82Q503 94 511 108T524 143T531 192T534 261V509Q534 545 532 568T522 606T501 627T465
636Q462 651 461 659T460 679Q477 677 504 677T554 676Q577 676 603 676T649 679Q649 672 648 663T644 636Q627 634 616 628T597 607T588 569T585 509V269ZM207 770Q245 799 287 839T364 920Q372 922 381 923T396 924Q423 887 460 844T542 756Q532 743 512 738Q496
749 478 762L442 788Q424 801 406 812T372 833Q360 827 340 814T296 786T252 756T218 732Q211 739 209 751T207 770Z" />
<glyph unicode="&#xdc;" glyph-name="Udieresis" horiz-adv-x="705" d="M585 269Q585 226 583 193T574 133T556 86T528 48Q499 19 458 5T366 -9Q296 -9 249 6T174 52T133 128T121 231V549Q121 576 119 592T110 617T92 630T62 636Q59 647 58 658T57 679Q77 677
109 677T173 676Q204 676 235 676T289 679Q289 669 288 658T284 636Q262 634 249 631T228 618T218 593T215 549V245Q215 203 223 166T250 102T302 60T385 44Q410 44 440 52T491 82Q503 94 511 108T524 143T531 192T534 261V509Q534 545 532 568T522 606T501 627T465
636Q462 651 461 659T460 679Q477 677 504 677T554 676Q577 676 603 676T649 679Q649 672 648 663T644 636Q627 634 616 628T597 607T588 569T585 509V269ZM282 747Q256 747 241 761T225 798Q225 820 238 837T280 855Q310 855 323 839T337 800Q337 777 321 762T282
747ZM475 855Q500 855 516 841T532 804Q532 783 520 766T478 748Q449 748 434 763T419 804Q419 828 434 841T475 855Z" />
<glyph unicode="&#xdd;" glyph-name="Yacute" horiz-adv-x="630" d="M366 295V163Q366 123 368 100T379 65T402 48T443 40Q449 22 449 -3L383 -1Q350 0 322 0H286Q267 0 248 0T213 -1T186 -2Q186 9 187 20T192 40Q219 42 234 46T258 62T269 94T272 150V294L105
578Q95 594 88 605T72 623T55 633T31 637Q27 648 26 657T25 678Q46 677 73 677T129 676H198Q217 676 234 676T263 678Q263 667 262 659T258 639Q219 635 214 619T231 564Q261 512 295 451Q324 399 349 349Q373 396 399 443Q429 499 455 544Q483 593 476 612T428
637Q425 648 423 657T421 678Q439 676 467 676H519Q542 676 565 676T605 678Q605 658 601 639Q587 635 576 629T553 610T528 579T499 531L366 295ZM319 752Q343 802 358 844T384 924Q406 932 424 934T458 936Q467 935 474 933T487 929Q454 891 419 842T355 746Q346
745 337 746T319 752Z" />
<glyph unicode="&#xde;" glyph-name="Thorn" horiz-adv-x="606" d="M130 549Q130 599 116 616T61 636Q56 650 56 679Q111 676 177 676Q209 676 238 676T298 679Q298 650 293 636Q253 634 239 617T224 549V538Q235 539 247 539Q270 539 294 539T339 540Q394 540
434 526T500 486T538 426T551 354Q551 318 537 282T495 217T424 170T324 151Q303 151 286 153T254 161Q252 169 252 178T255 194Q268 191 281 190T310 189Q338 189 364 195T410 217T443 261T456 333Q456 370 446 401T415 454T362 489T285 502Q268 502 254 500Q243
499 224 495V127Q224 77 238 60T293 40Q298 26 298 -3Q238 0 177 0Q148 0 115 0T56 -3Q56 26 61 40Q101 42 115 59T130 127V549Z" />
<glyph unicode="&#xdf;" glyph-name="germandbls" horiz-adv-x="591" d="M116 392Q104 397 79 400T36 404Q36 413 39 425T50 448H116V488Q116 546 136 589T187 660T257 701T330 715Q366 715 393 704T439 674T467 631T476 580Q476 549 468 528T447 490T419 461T392
436T371 411T362 381Q362 355 376 338T413 307T460 280T507 247T543 201T558 133Q558 105 546 80T514 36T466 5T410 -7Q387 -7 370 -5T337 1T309 13T282 31Q284 54 284 83T283 138Q290 143 304 146T330 149Q336 84 354 56T416 28Q442 28 461 51T481 113Q481 140
467 158T430 191T382 218T334 247T297 287T282 345Q282 373 292 392T317 427T349 455T381 480T406 510T416 550Q416 572 407 592T382 627T344 651T297 660Q274 660 257 654T229 631T212 588T206 519V-2Q193 -1 175 -1T130 0Q104 0 81 0T42 -3Q42 26 47 40Q87 42
101 59T116 127V392Z" />
<glyph unicode="&#xe0;" glyph-name="agrave" horiz-adv-x="483" d="M306 227Q280 224 252 219T201 202T163 172T147 119Q147 82 165 65T206 48Q222 48 239 56T272 81T296 124T306 189V227ZM396 149Q396 101 406 85T453 69Q453 58 452 45T446 22Q420 18 391 10T340
-9Q330 -5 323 6T315 40Q315 55 316 65T317 82Q313 69 306 56T280 27Q263 12 239 3T180 -7Q115 -7 83 21T50 99Q50 148 78 178T147 227T231 254T306 268Q306 299 305 319T302 352T296 375T285 392Q261 422 221 422Q198 422 182 410T156 381T141 343T135 306Q124
306 108 307T83 313Q85 338 84 368T78 422Q118 442 162 454T253 467Q287 467 311 457T354 428Q367 415 375 400T387 365T394 318T396 256V149ZM282 537Q273 532 263 532T242 535Q207 589 177 629T115 704Q135 714 160 715T211 712Q224 669 241 626T282 537Z" />
<glyph unicode="&#xe1;" glyph-name="aacute" horiz-adv-x="483" d="M306 227Q280 224 252 219T201 202T163 172T147 119Q147 82 165 65T206 48Q222 48 239 56T272 81T296 124T306 189V227ZM396 149Q396 101 406 85T453 69Q453 58 452 45T446 22Q420 18 391 10T340
-9Q330 -5 323 6T315 40Q315 55 316 65T317 82Q313 69 306 56T280 27Q263 12 239 3T180 -7Q115 -7 83 21T50 99Q50 148 78 178T147 227T231 254T306 268Q306 299 305 319T302 352T296 375T285 392Q261 422 221 422Q198 422 182 410T156 381T141 343T135 306Q124
306 108 307T83 313Q85 338 84 368T78 422Q118 442 162 454T253 467Q287 467 311 457T354 428Q367 415 375 400T387 365T394 318T396 256V149ZM467 537Q491 587 506 629T532 709Q554 717 572 719T606 721Q615 720 622 718T635 714Q602 676 567 627T503 531Q494
530 485 531T467 537Z" />
<glyph unicode="&#xe2;" glyph-name="acircumflex" horiz-adv-x="483" d="M306 227Q280 224 252 219T201 202T163 172T147 119Q147 82 165 65T206 48Q222 48 239 56T272 81T296 124T306 189V227ZM396 149Q396 101 406 85T453 69Q453 58 452 45T446 22Q420 18 391
10T340 -9Q330 -5 323 6T315 40Q315 55 316 65T317 82Q313 69 306 56T280 27Q263 12 239 3T180 -7Q115 -7 83 21T50 99Q50 148 78 178T147 227T231 254T306 268Q306 299 305 319T302 352T296 375T285 392Q261 422 221 422Q198 422 182 410T156 381T141 343T135
306Q124 306 108 307T83 313Q85 338 84 368T78 422Q118 442 162 454T253 467Q287 467 311 457T354 428Q367 415 375 400T387 365T394 318T396 256V149ZM317 555Q355 584 397 624T474 705Q482 707 491 708T506 709Q533 672 570 629T652 541Q642 528 622 523Q606
534 588 547L552 573Q534 586 516 597T482 618Q470 612 450 599T406 571T362 541T328 517Q321 524 319 536T317 555Z" />
<glyph unicode="&#xe3;" glyph-name="atilde" horiz-adv-x="483" d="M306 227Q280 224 252 219T201 202T163 172T147 119Q147 82 165 65T206 48Q222 48 239 56T272 81T296 124T306 189V227ZM396 149Q396 101 406 85T453 69Q453 58 452 45T446 22Q420 18 391 10T340
-9Q330 -5 323 6T315 40Q315 55 316 65T317 82Q313 69 306 56T280 27Q263 12 239 3T180 -7Q115 -7 83 21T50 99Q50 148 78 178T147 227T231 254T306 268Q306 299 305 319T302 352T296 375T285 392Q261 422 221 422Q198 422 182 410T156 381T141 343T135 306Q124
306 108 307T83 313Q85 338 84 368T78 422Q118 442 162 454T253 467Q287 467 311 457T354 428Q367 415 375 400T387 365T394 318T396 256V149ZM348 517Q338 523 338 536Q368 589 395 608T447 627Q465 627 481 621T514 607T547 593T580 586Q595 586 610 593T641
617Q645 617 650 616T660 609Q634 553 610 533T563 513Q546 513 530 519T496 534T462 549T425 556Q407 556 388 548T348 517Z" />
<glyph unicode="&#xe4;" glyph-name="adieresis" horiz-adv-x="483" d="M306 227Q280 224 252 219T201 202T163 172T147 119Q147 82 165 65T206 48Q222 48 239 56T272 81T296 124T306 189V227ZM396 149Q396 101 406 85T453 69Q453 58 452 45T446 22Q420 18 391
10T340 -9Q330 -5 323 6T315 40Q315 55 316 65T317 82Q313 69 306 56T280 27Q263 12 239 3T180 -7Q115 -7 83 21T50 99Q50 148 78 178T147 227T231 254T306 268Q306 299 305 319T302 352T296 375T285 392Q261 422 221 422Q198 422 182 410T156 381T141 343T135
306Q124 306 108 307T83 313Q85 338 84 368T78 422Q118 442 162 454T253 467Q287 467 311 457T354 428Q367 415 375 400T387 365T394 318T396 256V149ZM406 532Q380 532 365 546T349 583Q349 605 362 622T404 640Q434 640 447 624T461 585Q461 562 445 547T406
532ZM599 640Q624 640 640 626T656 589Q656 568 644 551T602 533Q573 533 558 548T543 589Q543 613 558 626T599 640Z" />
<glyph unicode="&#xe5;" glyph-name="aring" horiz-adv-x="483" d="M306 227Q280 224 252 219T201 202T163 172T147 119Q147 82 165 65T206 48Q222 48 239 56T272 81T296 124T306 189V227ZM396 149Q396 101 406 85T453 69Q453 58 452 45T446 22Q420 18 391 10T340
-9Q330 -5 323 6T315 40Q315 55 316 65T317 82Q313 69 306 56T280 27Q263 12 239 3T180 -7Q115 -7 83 21T50 99Q50 148 78 178T147 227T231 254T306 268Q306 299 305 319T302 352T296 375T285 392Q261 422 221 422Q198 422 182 410T156 381T141 343T135 306Q124
306 108 307T83 313Q85 338 84 368T78 422Q118 442 162 454T253 467Q287 467 311 457T354 428Q367 415 375 400T387 365T394 318T396 256V149ZM395 614Q395 654 425 681T499 708Q517 708 535 703T566 687T588 660T597 621Q597 580 567 553T492 526Q473 526 456
532T425 549T403 577T395 614ZM450 618Q450 595 463 579T502 563Q518 563 530 575T543 611Q543 632 531 653T492 674Q473 674 462 659T450 618Z" />
<glyph unicode="&#xe6;" glyph-name="ae" horiz-adv-x="684" d="M492 240Q435 237 382 232V230Q382 200 388 168T408 109T445 65T501 47Q550 47 578 66T624 108Q631 103 639 95T649 78Q616 33 574 14T479 -6Q429 -6 394 15T334 69Q323 85 314 102Q313 97 311 92Q303
67 293 53Q254 -6 171 -6Q105 -6 72 20T38 97Q38 146 64 177T129 227T213 255Q254 263 289 268V321Q289 372 264 397T205 422Q181 422 166 411T141 384T127 346T119 306Q108 306 91 307T67 313Q69 338 68 368T62 422Q104 442 145 454T237 467Q277 467 308 448Q332
433 350 404Q374 435 404 449Q444 467 485 467Q524 467 553 450T603 407T634 348T647 283Q645 273 642 263T631 245Q558 243 492 240ZM263 87Q289 127 289 218V223Q213 215 173 194Q131 171 131 116Q131 95 137 82T153 61T174 50T197 47Q237 47 263 87ZM382 277Q417
281 454 283Q498 286 550 288Q550 309 546 332T531 376T503 409T460 422Q420 422 401 385T382 287V277Z" />
<glyph unicode="&#xe7;" glyph-name="ccedilla" horiz-adv-x="450" d="M412 78Q385 35 345 13Q310 -6 263 -9L233 -50Q273 -57 296 -81T320 -141Q320 -166 308 -185T276 -216T234 -235T192 -242Q188 -235 187 -227T185 -210Q215 -210 239 -196T264 -155Q264 -130
246 -116T199 -101Q191 -95 186 -86T181 -63L216 -6Q194 -3 172 6Q135 21 106 50T58 124T40 227Q40 272 53 315T93 392T158 446T248 467Q342 467 399 422Q394 393 393 365T392 308Q384 303 371 302T346 300Q340 358 312 389T240 420Q190 420 162 374T133 242Q133
204 142 169T170 107T214 64T276 48Q343 48 387 106Q395 102 402 95T412 78Z" />
<glyph unicode="&#xe8;" glyph-name="egrave" horiz-adv-x="474" d="M203 223Q170 222 139 220Q140 198 144 177Q151 141 167 112T212 65T284 47Q317 47 349 61T406 105Q414 100 421 91T430 74Q395 29 351 10T252 -9Q199 -9 159 10T93 61T53 136T40 229Q40 277
54 320T95 396T160 448T247 467Q296 467 330 451T386 406T419 341T434 260Q430 240 419 226H368Q334 226 292 226T203 223ZM146 332Q140 307 138 271H330Q330 337 306 378T238 419Q220 419 202 412T170 385T146 332ZM265 537Q256 532 246 532T225 535Q190 589 160
629T98 704Q118 714 143 715T194 712Q207 669 224 626T265 537Z" />
<glyph unicode="&#xe9;" glyph-name="eacute" horiz-adv-x="474" d="M203 223Q170 222 139 220Q140 198 144 177Q151 141 167 112T212 65T284 47Q317 47 349 61T406 105Q414 100 421 91T430 74Q395 29 351 10T252 -9Q199 -9 159 10T93 61T53 136T40 229Q40 277
54 320T95 396T160 448T247 467Q296 467 330 451T386 406T419 341T434 260Q430 240 419 226H368Q334 226 292 226T203 223ZM146 332Q140 307 138 271H330Q330 337 306 378T238 419Q220 419 202 412T170 385T146 332ZM224 537Q248 587 263 629T289 709Q311 717 329
719T363 721Q372 720 379 718T392 714Q359 676 324 627T260 531Q251 530 242 531T224 537Z" />
<glyph unicode="&#xea;" glyph-name="ecircumflex" horiz-adv-x="474" d="M203 223Q170 222 139 220Q140 198 144 177Q151 141 167 112T212 65T284 47Q317 47 349 61T406 105Q414 100 421 91T430 74Q395 29 351 10T252 -9Q199 -9 159 10T93 61T53 136T40 229Q40
277 54 320T95 396T160 448T247 467Q296 467 330 451T386 406T419 341T434 260Q430 240 419 226H368Q334 226 292 226T203 223ZM146 332Q140 307 138 271H330Q330 337 306 378T238 419Q220 419 202 412T170 385T146 332ZM80 555Q118 584 160 624T237 705Q245 707
254 708T269 709Q296 672 333 629T415 541Q405 528 385 523Q369 534 351 547L315 573Q297 586 279 597T245 618Q233 612 213 599T169 571T125 541T91 517Q84 524 82 536T80 555Z" />
<glyph unicode="&#xeb;" glyph-name="edieresis" horiz-adv-x="474" d="M203 223Q170 222 139 220Q140 198 144 177Q151 141 167 112T212 65T284 47Q317 47 349 61T406 105Q414 100 421 91T430 74Q395 29 351 10T252 -9Q199 -9 159 10T93 61T53 136T40 229Q40
277 54 320T95 396T160 448T247 467Q296 467 330 451T386 406T419 341T434 260Q430 240 419 226H368Q334 226 292 226T203 223ZM146 332Q140 307 138 271H330Q330 337 306 378T238 419Q220 419 202 412T170 385T146 332ZM409 532Q383 532 368 546T352 583Q352 605
365 622T407 640Q437 640 450 624T464 585Q464 562 448 547T409 532ZM602 640Q627 640 643 626T659 589Q659 568 647 551T605 533Q576 533 561 548T546 589Q546 613 561 626T602 640Z" />
<glyph unicode="&#xec;" glyph-name="igrave" horiz-adv-x="320" d="M156 537Q147 532 137 532T116 535Q81 589 51 629T-11 704Q9 714 34 715T85 712Q98 669 115 626T156 537ZM201 127Q201 77 214 59T260 40Q263 29 264 17T265 -3Q239 -1 210 -1T152 0Q123 0 93
0T37 -3Q37 7 38 18T42 40Q82 40 96 58T111 127V325Q111 343 109 356T99 378T76 391T36 396Q36 407 38 416T45 433Q56 433 75 436T114 443T152 454T179 467Q188 464 194 455T201 427V127Z" />
<glyph unicode="&#xed;" glyph-name="iacute" horiz-adv-x="324" d="M381 537Q405 587 420 629T446 709Q468 717 486 719T520 721Q529 720 536 718T549 714Q516 676 481 627T417 531Q408 530 399 531T381 537ZM201 127Q201 77 214 59T260 40Q263 29 264 17T265
-3Q239 -1 210 -1T152 0Q123 0 93 0T37 -3Q37 7 38 18T42 40Q82 40 96 58T111 127V325Q111 343 109 356T99 378T76 391T36 396Q36 407 38 416T45 433Q56 433 75 436T114 443T152 454T179 467Q188 464 194 455T201 427V127Z" />
<glyph unicode="&#xee;" glyph-name="icircumflex" horiz-adv-x="313" d="M242 555Q280 584 322 624T399 705Q407 707 416 708T431 709Q458 672 495 629T577 541Q567 528 547 523Q531 534 513 547L477 573Q459 586 441 597T407 618Q395 612 375 599T331 571T287
541T253 517Q246 524 244 536T242 555ZM201 127Q201 77 214 59T260 40Q263 29 264 17T265 -3Q239 -1 210 -1T152 0Q123 0 93 0T37 -3Q37 7 38 18T42 40Q82 40 96 58T111 127V325Q111 343 109 356T99 378T76 391T36 396Q36 407 38 416T45 433Q56 433 75 436T114
443T152 454T179 467Q188 464 194 455T201 427V127Z" />
<glyph unicode="&#xef;" glyph-name="idieresis" horiz-adv-x="298" d="M50 532Q24 532 9 546T-7 583Q-7 605 6 622T48 640Q78 640 91 624T105 585Q105 562 89 547T50 532ZM243 640Q268 640 284 626T300 589Q300 568 288 551T246 533Q217 533 202 548T187 589Q187
613 202 626T243 640ZM201 127Q201 77 214 59T260 40Q263 29 264 17T265 -3Q239 -1 210 -1T152 0Q123 0 93 0T37 -3Q37 7 38 18T42 40Q82 40 96 58T111 127V325Q111 343 109 356T99 378T76 391T36 396Q36 407 38 416T45 433Q56 433 75 436T114 443T152 454T179
467Q188 464 194 455T201 427V127Z" />
<glyph unicode="&#xf0;" glyph-name="eth" horiz-adv-x="532" d="M200 583Q150 611 87 635Q87 643 88 651T98 669Q174 656 245 623Q252 620 259 616L372 679Q379 665 383 654T386 629Q348 609 320 594Q315 591 309 588Q342 566 370 540Q425 489 457 421T490 267Q490
194 473 142T424 57T350 8T257 -8Q141 -8 92 49T43 213Q43 275 64 317T119 386T193 425T273 437Q304 437 333 425Q350 418 364 408Q345 456 313 494Q285 527 247 554Q229 543 209 531Q179 514 138 490Q132 501 127 516T123 540L200 583ZM389 256Q389 305 381 346Q366
360 347 372Q314 391 264 391Q238 391 216 382T176 354T149 303T139 227Q139 136 175 92T268 48Q285 48 306 58T345 92T376 156T389 256Z" />
<glyph unicode="&#xf1;" glyph-name="ntilde" horiz-adv-x="596" d="M146 517Q136 523 136 536Q166 589 193 608T245 627Q263 627 279 621T312 607T345 593T378 586Q393 586 408 593T439 617Q443 617 448 616T458 609Q432 553 408 533T361 513Q344 513 328 519T294
534T260 549T223 556Q205 556 186 548T146 517ZM497 127Q497 75 511 58T556 40Q559 31 560 21T561 -3Q539 -1 511 -1T452 0Q421 0 389 -1T333 -3Q333 26 338 40Q374 40 390 58T407 127V279Q407 314 400 337T381 375T351 395T314 401Q294 401 274 392T238 363T212
312T201 234V127Q201 77 216 59T270 40Q273 31 274 21T275 -3Q254 -2 221 -1T156 0Q125 0 92 0T37 -3Q37 26 42 40Q81 40 96 58T111 127V325Q111 343 109 356T98 377T76 390T36 396Q36 407 38 416T45 433Q60 434 78 437T115 445T150 455T179 467Q188 464 194 455T201
423Q201 411 200 396T194 364Q197 369 200 375T209 390Q217 402 231 414T263 437T304 455T354 462Q382 462 408 454T454 426T485 376T497 299V127Z" />
<glyph unicode="&#xf2;" glyph-name="ograve" horiz-adv-x="532" d="M141 250Q141 148 177 94T274 39Q334 39 363 88T392 217Q392 263 381 300T352 364T309 405T256 419Q198 419 170 372T141 250ZM40 229Q40 280 56 323T103 399T174 449T266 467Q319 467 361 450T432
402T476 326T492 229Q492 178 476 134T430 59T359 9T266 -9Q215 -9 173 8T102 56T56 131T40 229ZM284 537Q275 532 265 532T244 535Q209 589 179 629T117 704Q137 714 162 715T213 712Q226 669 243 626T284 537Z" />
<glyph unicode="&#xf3;" glyph-name="oacute" horiz-adv-x="532" d="M141 250Q141 148 177 94T274 39Q334 39 363 88T392 217Q392 263 381 300T352 364T309 405T256 419Q198 419 170 372T141 250ZM40 229Q40 280 56 323T103 399T174 449T266 467Q319 467 361 450T432
402T476 326T492 229Q492 178 476 134T430 59T359 9T266 -9Q215 -9 173 8T102 56T56 131T40 229ZM242 537Q266 587 281 629T307 709Q329 717 347 719T381 721Q390 720 397 718T410 714Q377 676 342 627T278 531Q269 530 260 531T242 537Z" />
<glyph unicode="&#xf4;" glyph-name="ocircumflex" horiz-adv-x="532" d="M141 250Q141 148 177 94T274 39Q334 39 363 88T392 217Q392 263 381 300T352 364T309 405T256 419Q198 419 170 372T141 250ZM40 229Q40 280 56 323T103 399T174 449T266 467Q319 467
361 450T432 402T476 326T492 229Q492 178 476 134T430 59T359 9T266 -9Q215 -9 173 8T102 56T56 131T40 229ZM101 555Q139 584 181 624T258 705Q266 707 275 708T290 709Q317 672 354 629T436 541Q426 528 406 523Q390 534 372 547L336 573Q318 586 300 597T266
618Q254 612 234 599T190 571T146 541T112 517Q105 524 103 536T101 555Z" />
<glyph unicode="&#xf5;" glyph-name="otilde" horiz-adv-x="532" d="M141 250Q141 148 177 94T274 39Q334 39 363 88T392 217Q392 263 381 300T352 364T309 405T256 419Q198 419 170 372T141 250ZM40 229Q40 280 56 323T103 399T174 449T266 467Q319 467 361 450T432
402T476 326T492 229Q492 178 476 134T430 59T359 9T266 -9Q215 -9 173 8T102 56T56 131T40 229ZM122 517Q112 523 112 536Q142 589 169 608T221 627Q239 627 255 621T288 607T321 593T354 586Q369 586 384 593T415 617Q419 617 424 616T434 609Q408 553 384 533T337
513Q320 513 304 519T270 534T236 549T199 556Q181 556 162 548T122 517Z" />
<glyph unicode="&#xf6;" glyph-name="odieresis" horiz-adv-x="532" d="M141 250Q141 148 177 94T274 39Q334 39 363 88T392 217Q392 263 381 300T352 364T309 405T256 419Q198 419 170 372T141 250ZM40 229Q40 280 56 323T103 399T174 449T266 467Q319 467 361
450T432 402T476 326T492 229Q492 178 476 134T430 59T359 9T266 -9Q215 -9 173 8T102 56T56 131T40 229ZM417 532Q391 532 376 546T360 583Q360 605 373 622T415 640Q445 640 458 624T472 585Q472 562 456 547T417 532ZM610 640Q635 640 651 626T667 589Q667 568
655 551T613 533Q584 533 569 548T554 589Q554 613 569 626T610 640Z" />
<glyph unicode="&#xf7;" glyph-name="divide" horiz-adv-x="526" d="M505 287Q505 272 504 260T495 237Q453 237 426 237T375 238H273Q207 238 148 238T20 236Q20 247 22 263T30 287H505ZM264 466Q285 466 300 455T315 423Q315 400 305 384T267 368Q238 368 225
383T212 423Q212 445 227 455T264 466ZM269 61Q246 61 232 75T217 109Q217 129 228 143T267 158Q295 158 307 145T319 109Q319 87 304 74T269 61Z" />
<glyph unicode="&#xf8;" glyph-name="oslash" horiz-adv-x="536" d="M44 229Q44 280 60 323T107 399T178 449T270 467Q323 467 365 450Q381 443 395 435L432 482Q448 480 457 475T476 458L434 403L436 401Q465 370 480 326T496 229Q496 178 480 134T434 59T363
9T270 -9Q219 -9 177 8Q155 16 137 28L84 -39Q70 -39 58 -33T40 -17L102 59Q75 89 60 131Q44 175 44 229ZM278 39Q338 39 367 88T396 217Q396 263 385 300Q380 316 374 330L185 87Q220 39 278 39ZM145 250Q145 181 161 134L347 375Q332 394 312 405Q288 419 260
419Q202 419 174 372T145 250Z" />
<glyph unicode="&#xf9;" glyph-name="ugrave" horiz-adv-x="583" d="M314 537Q305 532 295 532T274 535Q239 589 209 629T147 704Q167 714 192 715T243 712Q256 669 273 626T314 537ZM391 330Q391 348 389 361T378 382T356 395T316 401Q316 412 317 420T323 438Q362
440 399 448T459 467Q468 464 474 455T481 423V136Q481 118 483 105T492 84T512 71T548 65Q548 54 547 44T542 22Q531 22 514 20T480 13T447 3T422 -9Q413 -6 405 4T397 40Q397 60 399 80V89Q389 67 369 47Q318 -4 248 -4Q213 -4 186 5T139 34T111 89T101 174V325Q101
343 100 356T91 377T71 390T35 396Q35 407 36 415T42 433Q57 434 74 437T109 445T141 455T169 467Q178 464 184 455T191 423V196Q191 120 211 89T281 57Q301 57 321 67T356 98T381 151T391 228V330Z" />
<glyph unicode="&#xfa;" glyph-name="uacute" horiz-adv-x="583" d="M251 537Q275 587 290 629T316 709Q338 717 356 719T390 721Q399 720 406 718T419 714Q386 676 351 627T287 531Q278 530 269 531T251 537ZM391 330Q391 348 389 361T378 382T356 395T316 401Q316
412 317 420T323 438Q362 440 399 448T459 467Q468 464 474 455T481 423V136Q481 118 483 105T492 84T512 71T548 65Q548 54 547 44T542 22Q531 22 514 20T480 13T447 3T422 -9Q413 -6 405 4T397 40Q397 60 399 80V89Q389 67 369 47Q318 -4 248 -4Q213 -4 186 5T139
34T111 89T101 174V325Q101 343 100 356T91 377T71 390T35 396Q35 407 36 415T42 433Q57 434 74 437T109 445T141 455T169 467Q178 464 184 455T191 423V196Q191 120 211 89T281 57Q301 57 321 67T356 98T381 151T391 228V330Z" />
<glyph unicode="&#xfb;" glyph-name="ucircumflex" horiz-adv-x="583" d="M111 555Q149 584 191 624T268 705Q276 707 285 708T300 709Q327 672 364 629T446 541Q436 528 416 523Q400 534 382 547L346 573Q328 586 310 597T276 618Q264 612 244 599T200 571T156
541T122 517Q115 524 113 536T111 555ZM391 330Q391 348 389 361T378 382T356 395T316 401Q316 412 317 420T323 438Q362 440 399 448T459 467Q468 464 474 455T481 423V136Q481 118 483 105T492 84T512 71T548 65Q548 54 547 44T542 22Q531 22 514 20T480 13T447
3T422 -9Q413 -6 405 4T397 40Q397 60 399 80V89Q389 67 369 47Q318 -4 248 -4Q213 -4 186 5T139 34T111 89T101 174V325Q101 343 100 356T91 377T71 390T35 396Q35 407 36 415T42 433Q57 434 74 437T109 445T141 455T169 467Q178 464 184 455T191 423V196Q191
120 211 89T281 57Q301 57 321 67T356 98T381 151T391 228V330Z" />
<glyph unicode="&#xfc;" glyph-name="udieresis" horiz-adv-x="563" d="M421 532Q395 532 380 546T364 583Q364 605 377 622T419 640Q449 640 462 624T476 585Q476 562 460 547T421 532ZM614 640Q639 640 655 626T671 589Q671 568 659 551T617 533Q588 533 573
548T558 589Q558 613 573 626T614 640ZM371 330Q371 348 369 361T358 382T336 395T296 401Q296 412 297 420T303 438Q342 440 379 448T439 467Q448 464 454 455T461 423V136Q461 118 463 105T472 84T492 71T528 65Q528 54 527 44T522 22Q511 22 494 20T460 13T427
3T402 -9Q393 -6 385 4T377 40Q377 60 379 80V89Q369 67 349 47Q298 -4 228 -4Q193 -4 166 5T119 34T91 89T81 174V325Q81 343 80 356T71 377T51 390T15 396Q15 407 16 415T22 433Q37 434 54 437T89 445T121 455T149 467Q158 464 164 455T171 423V196Q171 120 191
89T261 57Q281 57 301 67T336 98T361 151T371 228V330Z" />
<glyph unicode="&#xfd;" glyph-name="yacute" horiz-adv-x="574" d="M412 298Q425 330 427 351T424 385T404 406T367 417Q360 437 360 460Q383 458 407 458H511Q536 458 559 460Q559 450 559 439T553 417Q539 414 529 408T511 391T493 360T472 313L325 -37Q296
-105 274 -147T233 -211T194 -241T151 -249Q121 -249 104 -242T76 -226Q72 -211 73 -189T77 -153Q111 -159 141 -159Q170 -159 196 -146T242 -100Q249 -90 259 -69T283 -17Q286 -12 288 -7Q273 26 257 62Q238 106 219 148T183 228T152 294Q134 331 122 354T98 390T77
408T54 417Q48 435 48 460Q77 459 106 459T161 458H225L261 459Q279 460 294 460Q294 434 287 417Q260 412 245 405T225 386T225 354T244 307Q254 285 267 257T293 198T319 137Q327 118 333 101Q338 112 343 124L412 298ZM309 537Q333 587 348 629T374 709Q396
717 414 719T448 721Q457 720 464 718T477 714Q444 676 409 627T345 531Q336 530 327 531T309 537Z" />
<glyph unicode="&#xfe;" glyph-name="thorn" horiz-adv-x="580" d="M271 -9Q242 -9 221 -4L208 -1V-115Q208 -141 211 -158T223 -184T247 -198T287 -202Q290 -211 291 -221T292 -245Q268 -243 233 -243T168 -242Q139 -242 105 -242T44 -245Q44 -216 49 -202Q89
-202 103 -184T118 -115V575Q118 593 116 606T105 628T83 641T43 646Q43 657 45 666T52 683Q63 683 82 686T121 693T159 704T186 717Q195 714 201 705T208 677V425Q208 417 207 408Q211 412 215 417Q228 430 246 441T286 459T333 467Q421 467 470 414T520 245Q520
192 502 146T452 66T373 11T271 -9ZM208 56Q213 54 217 51Q241 37 276 37Q297 37 322 45T369 75T406 134T421 232Q421 280 410 313T382 366T345 395T309 404Q287 404 266 394T226 361Q211 341 201 310L208 306V56Z" />
<glyph unicode="&#xff;" glyph-name="ydieresis" horiz-adv-x="574" d="M409 298Q422 330 424 351T421 385T401 406T364 417Q357 437 357 460Q380 458 404 458H508Q533 458 556 460Q556 450 556 439T550 417Q536 414 526 408T508 391T490 360T469 313L322 -37Q293
-105 271 -147T230 -211T191 -241T148 -249Q118 -249 101 -242T73 -226Q69 -211 70 -189T74 -153Q108 -159 138 -159Q167 -159 193 -146T239 -100Q246 -90 256 -69T280 -17Q283 -12 285 -7Q270 26 254 62Q235 106 216 148T180 228T149 294Q131 331 119 354T95 390T74
408T51 417Q45 435 45 460Q74 459 103 459T158 458H222L258 459Q276 460 291 460Q291 434 284 417Q257 412 242 405T222 386T222 354T241 307Q251 285 264 257T290 198T316 137Q324 118 330 101Q335 112 340 124L409 298ZM215 532Q189 532 174 546T158 583Q158
605 171 622T213 640Q243 640 256 624T270 585Q270 562 254 547T215 532ZM408 640Q433 640 449 626T465 589Q465 568 453 551T411 533Q382 533 367 548T352 589Q352 613 367 626T408 640Z" />
</font>
</defs>
</svg>
